<svg width="80" height="81" viewBox="0 0 80 81" fill="none" xmlns="http://www.w3.org/2000/svg">
<path d="M61.5709 54.2117L70.7692 32.615V30.4742C70.7692 29.8758 70.577 29.3844 70.1926 29C69.8076 28.6156 69.3162 28.4233 68.7184 28.4233H50.8909L52.9359 14.0642L44.8209 22.135C44.6709 22.0278 44.3654 21.7433 43.9042 21.2817C43.4426 20.8206 43.1584 20.5364 43.0517 20.4292L52.8334 10.5L54.0317 11.6983C54.5451 12.2117 54.9159 12.8111 55.1442 13.4967C55.3731 14.1828 55.432 14.8719 55.3209 15.5642L53.8209 25.8592H68.7184C69.9651 25.8592 71.0459 26.3058 71.9609 27.1992C72.8759 28.0931 73.3334 29.1847 73.3334 30.4742V32.25C73.3334 32.5833 73.2917 32.8953 73.2084 33.1858C73.1251 33.4764 73.0279 33.7606 72.9167 34.0383L65.3909 51.8975C65.0876 52.6281 64.6284 53.1964 64.0134 53.6025C63.3979 54.0086 62.6867 54.2117 61.8801 54.2117H61.5709ZM18.4617 67.1667H6.66675V38.7308H18.4617V41.295H9.23091V64.6025H18.4617V67.1667ZM42.0834 67.1667H15.8976V40.8783L33.2376 23.4358L34.4359 24.635C34.9059 25.1478 35.2659 25.7469 35.5159 26.4325C35.7659 27.1186 35.8354 27.8292 35.7242 28.5642L34.2434 38.7308H49.5001C50.7895 38.7308 51.8812 39.1883 52.7751 40.1033C53.6684 41.0183 54.1151 42.0992 54.1151 43.3458V45.25C54.1151 45.555 54.0842 45.8492 54.0226 46.1325C53.9604 46.4158 53.8737 46.6964 53.7626 46.9742L46.3651 64.34C46.019 65.1989 45.4634 65.8847 44.6984 66.3975C43.9334 66.9103 43.0617 67.1667 42.0834 67.1667ZM43.4292 64.6025L51.5517 45.615V43.3458C51.5517 42.7903 51.3592 42.3097 50.9742 41.9042C50.5898 41.4981 50.0984 41.295 49.5001 41.295H31.2309L33.2759 27.0192L18.4617 41.9358V64.6025H43.4292Z" fill="#FF0000"/>
<path d="M61.5709 54.2117L70.7693 32.615V30.4742C70.7693 29.8758 70.577 29.3844 70.1926 29C69.8076 28.6156 69.3162 28.4233 68.7184 28.4233H50.8909L52.9359 14.0642L44.8209 22.135C44.6709 22.0278 44.3654 21.7433 43.9043 21.2817C43.4426 20.8206 43.1584 20.5364 43.0518 20.4292L52.8334 10.5L54.0318 11.6983C54.5451 12.2117 54.9159 12.8111 55.1443 13.4967C55.3731 14.1828 55.432 14.8719 55.3209 15.5642L53.8209 25.8592H68.7184C69.9651 25.8592 71.0459 26.3058 71.9609 27.1992C72.8759 28.0931 73.3334 29.1847 73.3334 30.4742V32.25C73.3334 32.5833 73.2918 32.8953 73.2084 33.1858C73.1251 33.4764 73.0279 33.7606 72.9168 34.0383L65.3909 51.8975C65.0876 52.6281 64.6284 53.1964 64.0134 53.6025C63.3979 54.0086 62.6868 54.2117 61.8801 54.2117H61.5709Z" fill="white"/>
</svg>
