<svg width="80" height="80" viewBox="0 0 80 80" fill="none" xmlns="http://www.w3.org/2000/svg">
<path d="M61.5708 53.7117L70.7691 32.115V29.9742C70.7691 29.3758 70.5769 28.8844 70.1925 28.5C69.8075 28.1156 69.3161 27.9233 68.7183 27.9233H50.8908L52.9358 13.5642L44.8208 21.635C44.6708 21.5278 44.3652 21.2433 43.9041 20.7817C43.4425 20.3206 43.1583 20.0364 43.0516 19.9292L52.8333 10L54.0316 11.1983C54.545 11.7117 54.9158 12.3111 55.1441 12.9967C55.373 13.6828 55.4319 14.3719 55.3208 15.0642L53.8208 25.3592H68.7183C69.965 25.3592 71.0458 25.8058 71.9608 26.6992C72.8758 27.5931 73.3333 28.6847 73.3333 29.9742V31.75C73.3333 32.0833 73.2916 32.3953 73.2083 32.6858C73.125 32.9764 73.0277 33.2606 72.9166 33.5383L65.3908 51.3975C65.0875 52.1281 64.6283 52.6964 64.0133 53.1025C63.3977 53.5086 62.6866 53.7117 61.88 53.7117H61.5708ZM18.4616 66.6667H6.66663V38.2308H18.4616V40.795H9.23079V64.1025H18.4616V66.6667ZM42.0833 66.6667H15.8975V40.3783L33.2375 22.9358L34.4358 24.135C34.9058 24.6478 35.2658 25.2469 35.5158 25.9325C35.7658 26.6186 35.8352 27.3292 35.7241 28.0642L34.2433 38.2308H49.5C50.7894 38.2308 51.8811 38.6883 52.775 39.6033C53.6683 40.5183 54.115 41.5992 54.115 42.8458V44.75C54.115 45.055 54.0841 45.3492 54.0225 45.6325C53.9602 45.9158 53.8736 46.1964 53.7625 46.4742L46.365 63.84C46.0188 64.6989 45.4633 65.3847 44.6983 65.8975C43.9333 66.4103 43.0616 66.6667 42.0833 66.6667ZM43.4291 64.1025L51.5516 45.115V42.8458C51.5516 42.2903 51.3591 41.8097 50.9741 41.4042C50.5897 40.9981 50.0983 40.795 49.5 40.795H31.2308L33.2758 26.5192L18.4616 41.4358V64.1025H43.4291Z" fill="#FF0000"/>
</svg>
