<svg width="80" height="81" viewBox="0 0 80 81" fill="none" xmlns="http://www.w3.org/2000/svg">
<path d="M39.9817 50.115C42.7461 50.115 45.2533 49.3031 47.5033 47.6792C49.7533 46.0553 51.3378 43.9164 52.2567 41.2625L49.5067 41.3459C48.6339 43.2775 47.3439 44.7948 45.6367 45.8975C43.9294 47.0003 42.0514 47.5517 40.0025 47.5517C37.9531 47.5517 36.0742 47.0003 34.3658 45.8975C32.6575 44.7948 31.3667 43.2775 30.4933 41.3459H27.7433C28.6622 43.987 30.2406 46.1089 32.4783 47.7117C34.7161 49.3139 37.2172 50.115 39.9817 50.115ZM30.8483 33.5767C31.4411 33.5767 31.9606 33.3484 32.4067 32.8917C32.8533 32.435 33.0767 31.9106 33.0767 31.3184C33.0767 30.7256 32.8483 30.2062 32.3917 29.76C31.935 29.3134 31.4106 29.09 30.8183 29.09C30.2256 29.09 29.7061 29.3184 29.26 29.775C28.8133 30.2317 28.59 30.7561 28.59 31.3484C28.59 31.9412 28.8183 32.4606 29.275 32.9067C29.7317 33.3534 30.2561 33.5767 30.8483 33.5767ZM49.1817 33.5767C49.7744 33.5767 50.2939 33.3484 50.74 32.8917C51.1867 32.435 51.41 31.9106 51.41 31.3184C51.41 30.7256 51.1817 30.2062 50.725 29.76C50.2683 29.3134 49.7439 29.09 49.1517 29.09C48.5589 29.09 48.0394 29.3184 47.5933 29.775C47.1467 30.2317 46.9233 30.7561 46.9233 31.3484C46.9233 31.9412 47.1517 32.4606 47.6083 32.9067C48.065 33.3534 48.5894 33.5767 49.1817 33.5767ZM40 67.1475L38.1217 65.4292C32.5322 60.3353 27.9244 55.9539 24.2983 52.285C20.6722 48.6161 17.795 45.3748 15.6667 42.5609C13.5383 39.747 12.0619 37.232 11.2375 35.0159C10.4125 32.8003 10 30.592 10 28.3909C10 24.2442 11.4028 20.7814 14.2083 18.0025C17.0139 15.2231 20.4828 13.8334 24.615 13.8334C27.6539 13.8334 30.4778 14.6475 33.0867 16.2759C35.6956 17.9042 38 20.2845 40 23.4167C42.1622 20.2028 44.5139 17.8023 47.055 16.215C49.5956 14.6273 52.3722 13.8334 55.385 13.8334C59.5172 13.8334 62.9861 15.2231 65.7917 18.0025C68.5972 20.7814 70 24.2442 70 28.3909C70 30.592 69.5875 32.8003 68.7625 35.0159C67.9381 37.232 66.4617 39.747 64.3333 42.5609C62.205 45.3748 59.3311 48.6161 55.7117 52.285C52.0917 55.9539 47.4806 60.3353 41.8783 65.4292L40 67.1475ZM40 63.705C45.4428 58.6767 49.9292 54.38 53.4592 50.815C56.9892 47.2506 59.7919 44.1467 61.8675 41.5034C63.9431 38.8595 65.39 36.5089 66.2083 34.4517C67.0267 32.3939 67.4358 30.382 67.4358 28.4159C67.4358 24.9537 66.2906 22.085 64 19.81C61.7094 17.535 58.8439 16.3975 55.4033 16.3975C52.595 16.3975 50.0233 17.2192 47.6883 18.8625C45.3533 20.5053 43.1581 23.0598 41.1025 26.5259H38.8783C36.7928 23.0725 34.5858 20.5212 32.2575 18.8717C29.9292 17.2223 27.3756 16.3975 24.5967 16.3975C21.1989 16.3975 18.3439 17.5211 16.0317 19.7684C13.72 22.0156 12.5642 24.9014 12.5642 28.4259C12.5642 30.4281 12.9733 32.4459 13.7917 34.4792C14.61 36.512 16.0458 38.8603 18.0992 41.5242C20.1525 44.1875 22.9592 47.302 26.5192 50.8675C30.0792 54.4331 34.5728 58.7123 40 63.705Z" fill="#FF0000"/>
<path d="M39.9816 50.1151C42.7461 50.1151 45.2533 49.3031 47.5033 47.6793C49.7533 46.0554 51.3377 43.9165 52.2566 41.2626L49.5066 41.3459C48.6338 43.2776 47.3438 44.7948 45.6366 45.8976C43.9294 47.0004 42.0513 47.5518 40.0025 47.5518C37.953 47.5518 36.0741 47.0004 34.3658 45.8976C32.6575 44.7948 31.3666 43.2776 30.4933 41.3459H27.7433C28.6622 43.987 30.2405 46.109 32.4783 47.7118C34.7161 49.314 37.2172 50.1151 39.9816 50.1151ZM30.8483 33.5768C31.4411 33.5768 31.9605 33.3484 32.4066 32.8918C32.8533 32.4351 33.0766 31.9106 33.0766 31.3184C33.0766 30.7256 32.8483 30.2062 32.3916 29.7601C31.935 29.3134 31.4105 29.0901 30.8183 29.0901C30.2255 29.0901 29.7061 29.3184 29.26 29.7751C28.8133 30.2318 28.59 30.7562 28.59 31.3484C28.59 31.9412 28.8183 32.4606 29.275 32.9068C29.7316 33.3534 30.2561 33.5768 30.8483 33.5768ZM49.1816 33.5768C49.7744 33.5768 50.2938 33.3484 50.74 32.8918C51.1866 32.4351 51.41 31.9106 51.41 31.3184C51.41 30.7256 51.1816 30.2062 50.725 29.7601C50.2683 29.3134 49.7438 29.0901 49.1516 29.0901C48.5588 29.0901 48.0394 29.3184 47.5933 29.7751C47.1466 30.2318 46.9233 30.7562 46.9233 31.3484C46.9233 31.9412 47.1516 32.4606 47.6083 32.9068C48.065 33.3534 48.5894 33.5768 49.1816 33.5768Z" fill="white"/>
</svg>
