<svg width="80" height="81" viewBox="0 0 80 81" fill="none" xmlns="http://www.w3.org/2000/svg">
<path d="M23.9741 67.1667C22.5774 67.1667 21.3683 66.7298 20.3466 65.8559C19.3249 64.982 18.703 63.8442 18.4808 62.4425L13.3333 25.2759H22.6858V18.4484C22.6858 17.2017 23.1349 16.1209 24.0333 15.2059C24.9321 14.2909 26.0216 13.8334 27.3016 13.8334H52.7183C53.9977 13.8334 55.0869 14.2909 55.9858 15.2059C56.8841 16.1209 57.3333 17.2017 57.3333 18.4484V25.2759H66.6858L61.4741 62.4425C61.2519 63.8442 60.6291 64.982 59.6058 65.8559C58.5824 66.7298 57.3741 67.1667 55.9808 67.1667H23.9741ZM16.2624 27.84L21.1924 62.8717C21.2352 63.3845 21.4594 63.8012 21.8649 64.1217C22.271 64.4423 22.7305 64.6025 23.2433 64.6025H56.8691C57.3819 64.6025 57.8305 64.4423 58.2149 64.1217C58.5999 63.8012 58.8349 63.3845 58.9199 62.8717L63.6924 27.84H16.2624ZM36.6091 53.705L49.7949 40.6667L47.9424 38.8784L36.6733 50.0192L32.0766 45.5709L30.3074 47.4042L36.6091 53.705ZM25.2499 25.2759H54.7691V18.4484C54.7691 17.8506 54.5769 17.3592 54.1924 16.9742C53.8074 16.5898 53.316 16.3975 52.7183 16.3975H27.3016C26.7033 16.3975 26.2116 16.5898 25.8266 16.9742C25.4421 17.3592 25.2499 17.8506 25.2499 18.4484V25.2759Z" fill="#FF0000"/>
<path d="M36.609 53.7051L49.7949 40.6668L47.9424 38.8784L36.6732 50.0193L32.0765 45.5709L30.3074 47.4043L36.609 53.7051Z" fill="white"/>
</svg>
