<svg width="80" height="80" viewBox="0 0 80 80" fill="none" xmlns="http://www.w3.org/2000/svg">
<path d="M23.9741 66.6663C22.5775 66.6663 21.3683 66.2294 20.3466 65.3555C19.325 64.4816 18.703 63.3438 18.4808 61.9422L13.3333 24.7755H22.6858V17.948C22.6858 16.7013 23.135 15.6205 24.0333 14.7055C24.9322 13.7905 26.0216 13.333 27.3016 13.333H52.7183C53.9978 13.333 55.0869 13.7905 55.9858 14.7055C56.8841 15.6205 57.3333 16.7013 57.3333 17.948V24.7755H66.6858L61.4741 61.9422C61.2519 63.3438 60.6292 64.4816 59.6058 65.3555C58.5825 66.2294 57.3741 66.6663 55.9808 66.6663H23.9741ZM16.2625 27.3397L21.1925 62.3713C21.2353 62.8841 21.4594 63.3008 21.865 63.6213C22.2711 63.9419 22.7305 64.1022 23.2433 64.1022H56.8691C57.3819 64.1022 57.8305 63.9419 58.215 63.6213C58.6 63.3008 58.835 62.8841 58.92 62.3713L63.6925 27.3397H16.2625ZM36.6091 53.2047L49.795 40.1663L47.9425 38.378L36.6733 49.5188L32.0766 45.0705L30.3075 46.9038L36.6091 53.2047ZM25.25 24.7755H54.7691V17.948C54.7691 17.3502 54.5769 16.8588 54.1925 16.4738C53.8075 16.0894 53.3161 15.8972 52.7183 15.8972H27.3016C26.7033 15.8972 26.2116 16.0894 25.8266 16.4738C25.4422 16.8588 25.25 17.3502 25.25 17.948V24.7755Z" fill="#FF0000"/>
</svg>
