<svg width="80" height="80" viewBox="0 0 80 80" fill="none" xmlns="http://www.w3.org/2000/svg">
<path d="M24.615 63.3337C22.3078 63.3337 20.3828 62.5153 18.84 60.8787C17.2972 59.242 16.5792 57.2762 16.6858 54.9812H9.24999L9.82082 52.417H17.3592C17.893 50.947 18.8214 49.7492 20.1442 48.8237C21.4669 47.8987 22.9572 47.4362 24.615 47.4362C26.2733 47.4362 27.7639 47.8987 29.0867 48.8237C30.4094 49.7492 31.3592 50.947 31.9358 52.417H48.5L56.1025 19.2312H25.5L26.0708 16.667H59.34L56.5383 28.7187H63.8142L72.6092 40.4878L69.7433 54.9812H65.8975C66.0042 57.2762 65.283 59.242 63.7342 60.8787C62.1847 62.5153 60.2561 63.3337 57.9483 63.3337C55.6411 63.3337 53.7161 62.5153 52.1733 60.8787C50.6305 59.242 49.9125 57.2762 50.0192 54.9812H32.5642C32.6708 57.2762 31.9497 59.242 30.4008 60.8787C28.8514 62.5153 26.9228 63.3337 24.615 63.3337ZM52.8333 44.552H69.2117L69.84 41.0962L62.5317 31.282H55.885L52.8333 44.552ZM56.1025 19.2312L48.5 52.417L49.5517 47.9428L56.1025 19.2312ZM14.1667 42.302V33.3978H8.71832L17.3717 18.6153V27.5003H22.8208L14.1667 42.302ZM24.615 60.7695C26.1239 60.7695 27.3986 60.2353 28.4392 59.167C29.4797 58.0987 30 56.8381 30 55.3853C30 53.8764 29.4797 52.6017 28.4392 51.5612C27.3986 50.5206 26.1239 50.0003 24.615 50.0003C23.1622 50.0003 21.9017 50.5206 20.8333 51.5612C19.765 52.6017 19.2308 53.8764 19.2308 55.3853C19.2308 56.8381 19.765 58.0987 20.8333 59.167C21.9017 60.2353 23.1622 60.7695 24.615 60.7695ZM57.9483 60.7695C59.4572 60.7695 60.7319 60.2353 61.7725 59.167C62.813 58.0987 63.3333 56.8381 63.3333 55.3853C63.3333 53.8764 62.813 52.6017 61.7725 51.5612C60.7319 50.5206 59.4572 50.0003 57.9483 50.0003C56.4955 50.0003 55.235 50.5206 54.1667 51.5612C53.0983 52.6017 52.5642 53.8764 52.5642 55.3853C52.5642 56.8381 53.0983 58.0987 54.1667 59.167C55.235 60.2353 56.4955 60.7695 57.9483 60.7695Z" fill="#FF0000"/>
</svg>
