<svg width="80" height="81" viewBox="0 0 80 81" fill="none" xmlns="http://www.w3.org/2000/svg">
<path d="M24.6149 63.8333C22.3077 63.8333 20.3827 63.015 18.8399 61.3783C17.2971 59.7416 16.5791 57.7758 16.6858 55.4808H9.24993L9.82076 52.9166H17.3591C17.893 51.4466 18.8213 50.2488 20.1441 49.3233C21.4669 48.3983 22.9572 47.9358 24.6149 47.9358C26.2733 47.9358 27.7638 48.3983 29.0866 49.3233C30.4094 50.2488 31.3591 51.4466 31.9358 52.9166H48.4999L56.1024 19.7308H25.4999L26.0708 17.1666H59.3399L56.5383 29.2183H63.8141L72.6091 40.9875L69.7433 55.4808H65.8974C66.0041 57.7758 65.283 59.7416 63.7341 61.3783C62.1846 63.015 60.256 63.8333 57.9483 63.8333C55.641 63.8333 53.716 63.015 52.1733 61.3783C50.6305 59.7416 49.9124 57.7758 50.0191 55.4808H32.5641C32.6708 57.7758 31.9496 59.7416 30.4008 61.3783C28.8513 63.015 26.9227 63.8333 24.6149 63.8333ZM52.8333 45.0516H69.2116L69.8399 41.5958L62.5316 31.7816H55.8849L52.8333 45.0516ZM56.1024 19.7308L48.4999 52.9166L49.5516 48.4425L56.1024 19.7308ZM14.1666 42.8016V33.8975H8.71826L17.3716 19.115V28H22.8208L14.1666 42.8016ZM24.6149 61.2691C26.1238 61.2691 27.3985 60.735 28.4391 59.6666C29.4796 58.5983 29.9999 57.3377 29.9999 55.885C29.9999 54.3761 29.4796 53.1013 28.4391 52.0608C27.3985 51.0202 26.1238 50.5 24.6149 50.5C23.1622 50.5 21.9016 51.0202 20.8333 52.0608C19.7649 53.1013 19.2308 54.3761 19.2308 55.885C19.2308 57.3377 19.7649 58.5983 20.8333 59.6666C21.9016 60.735 23.1622 61.2691 24.6149 61.2691ZM57.9483 61.2691C59.4571 61.2691 60.7319 60.735 61.7724 59.6666C62.813 58.5983 63.3333 57.3377 63.3333 55.885C63.3333 54.3761 62.813 53.1013 61.7724 52.0608C60.7319 51.0202 59.4571 50.5 57.9483 50.5C56.4955 50.5 55.2349 51.0202 54.1666 52.0608C53.0983 53.1013 52.5641 54.3761 52.5641 55.885C52.5641 57.3377 53.0983 58.5983 54.1666 59.6666C55.2349 60.735 56.4955 61.2691 57.9483 61.2691Z" fill="#FF0000"/>
<path d="M14.1666 42.8017V33.8975H8.71826L17.3716 19.115V28H22.8208L14.1666 42.8017Z" fill="white"/>
</svg>
