<svg width="80" height="80" viewBox="0 0 80 80" fill="none" xmlns="http://www.w3.org/2000/svg">
<path d="M39.9817 49.6147C42.7461 49.6147 45.2533 48.8027 47.5033 47.1788C49.7533 45.555 51.3378 43.4161 52.2567 40.7622L49.5067 40.8455C48.6339 42.7772 47.3439 44.2944 45.6367 45.3972C43.9294 46.5 42.0514 47.0513 40.0025 47.0513C37.9531 47.0513 36.0742 46.5 34.3658 45.3972C32.6575 44.2944 31.3667 42.7772 30.4933 40.8455H27.7433C28.6622 43.4866 30.2406 45.6086 32.4783 47.2113C34.7161 48.8136 37.2172 49.6147 39.9817 49.6147ZM30.8483 33.0763C31.4411 33.0763 31.9606 32.848 32.4067 32.3913C32.8533 31.9347 33.0767 31.4102 33.0767 30.818C33.0767 30.2252 32.8483 29.7058 32.3917 29.2597C31.935 28.813 31.4106 28.5897 30.8183 28.5897C30.2256 28.5897 29.7061 28.818 29.26 29.2747C28.8133 29.7313 28.59 30.2558 28.59 30.848C28.59 31.4408 28.8183 31.9602 29.275 32.4063C29.7317 32.853 30.2561 33.0763 30.8483 33.0763ZM49.1817 33.0763C49.7744 33.0763 50.2939 32.848 50.74 32.3913C51.1867 31.9347 51.41 31.4102 51.41 30.818C51.41 30.2252 51.1817 29.7058 50.725 29.2597C50.2683 28.813 49.7439 28.5897 49.1517 28.5897C48.5589 28.5897 48.0394 28.818 47.5933 29.2747C47.1467 29.7313 46.9233 30.2558 46.9233 30.848C46.9233 31.4408 47.1517 31.9602 47.6083 32.4063C48.065 32.853 48.5894 33.0763 49.1817 33.0763ZM40 66.6472L38.1217 64.9288C32.5322 59.835 27.9244 55.4536 24.2983 51.7847C20.6722 48.1158 17.795 44.8744 15.6667 42.0605C13.5383 39.2466 12.0619 36.7316 11.2375 34.5155C10.4125 32.3 10 30.0916 10 27.8905C10 23.7438 11.4028 20.2811 14.2083 17.5022C17.0139 14.7227 20.4828 13.333 24.615 13.333C27.6539 13.333 30.4778 14.1472 33.0867 15.7755C35.6956 17.4038 38 19.7841 40 22.9163C42.1622 19.7025 44.5139 17.3019 47.055 15.7147C49.5956 14.1269 52.3722 13.333 55.385 13.333C59.5172 13.333 62.9861 14.7227 65.7917 17.5022C68.5972 20.2811 70 23.7438 70 27.8905C70 30.0916 69.5875 32.3 68.7625 34.5155C67.9381 36.7316 66.4617 39.2466 64.3333 42.0605C62.205 44.8744 59.3311 48.1158 55.7117 51.7847C52.0917 55.4536 47.4806 59.835 41.8783 64.9288L40 66.6472ZM40 63.2047C45.4428 58.1763 49.9292 53.8797 53.4592 50.3147C56.9892 46.7502 59.7919 43.6463 61.8675 41.003C63.9431 38.3591 65.39 36.0086 66.2083 33.9513C67.0267 31.8936 67.4358 29.8816 67.4358 27.9155C67.4358 24.4533 66.2906 21.5847 64 19.3097C61.7094 17.0347 58.8439 15.8972 55.4033 15.8972C52.595 15.8972 50.0233 16.7188 47.6883 18.3622C45.3533 20.0049 43.1581 22.5594 41.1025 26.0255H38.8783C36.7928 22.5722 34.5858 20.0208 32.2575 18.3713C29.9292 16.7219 27.3756 15.8972 24.5967 15.8972C21.1989 15.8972 18.3439 17.0208 16.0317 19.268C13.72 21.5152 12.5642 24.4011 12.5642 27.9255C12.5642 29.9277 12.9733 31.9455 13.7917 33.9788C14.61 36.0116 16.0458 38.36 18.0992 41.0238C20.1525 43.6872 22.9592 46.8016 26.5192 50.3672C30.0792 53.9327 34.5728 58.2119 40 63.2047Z" fill="#FF0000"/>
</svg>
