<svg width="24" height="30" viewBox="0 0 24 30" fill="none" xmlns="http://www.w3.org/2000/svg">
<g filter="url(#filter0_d_1_201)">
<path d="M12.0036 11.7308C12.4487 11.7308 12.8286 11.5723 13.1433 11.2552C13.4581 10.9383 13.6156 10.5572 13.6156 10.112C13.6156 9.66683 13.457 9.28683 13.1398 8.972C12.8228 8.65733 12.4417 8.5 11.9966 8.5C11.5514 8.5 11.1715 8.6585 10.8568 8.9755C10.542 9.2925 10.3846 9.67358 10.3846 10.1188C10.3846 10.5639 10.5431 10.9439 10.8603 11.2587C11.1773 11.5734 11.5584 11.7308 12.0036 11.7308ZM12.0001 19.677C13.8796 18.041 15.3655 16.3772 16.4578 14.6855C17.5501 12.9938 18.0963 11.5307 18.0963 10.2962C18.0963 8.46675 17.5171 6.95675 16.3588 5.76625C15.2005 4.57592 13.7476 3.98075 12.0001 3.98075C10.2526 3.98075 8.79964 4.57592 7.64131 5.76625C6.48298 6.95675 5.90381 8.46675 5.90381 10.2962C5.90381 11.5307 6.44998 12.9938 7.54231 14.6855C8.63464 16.3772 10.1206 18.041 12.0001 19.677ZM12.0001 21.0193C9.65006 18.9411 7.87989 17.0029 6.68956 15.2048C5.49906 13.4068 4.90381 11.7706 4.90381 10.2962C4.90381 8.18075 5.59264 6.43583 6.97031 5.0615C8.34781 3.68717 10.0244 3 12.0001 3C13.9757 3 15.6523 3.68717 17.0298 5.0615C18.4075 6.43583 19.0963 8.18075 19.0963 10.2962C19.0963 11.7706 18.5011 13.4068 17.3106 15.2048C16.1202 17.0029 14.3501 18.9411 12.0001 21.0193Z" fill="#FF0000"/>
</g>
<defs>
<filter id="filter0_d_1_201" x="-4" y="0" width="32" height="32" filterUnits="userSpaceOnUse" color-interpolation-filters="sRGB">
<feFlood flood-opacity="0" result="BackgroundImageFix"/>
<feColorMatrix in="SourceAlpha" type="matrix" values="0 0 0 0 0 0 0 0 0 0 0 0 0 0 0 0 0 0 127 0" result="hardAlpha"/>
<feOffset dy="4"/>
<feGaussianBlur stdDeviation="2"/>
<feComposite in2="hardAlpha" operator="out"/>
<feColorMatrix type="matrix" values="0 0 0 0 0 0 0 0 0 0 0 0 0 0 0 0 0 0 0.25 0"/>
<feBlend mode="normal" in2="BackgroundImageFix" result="effect1_dropShadow_1_201"/>
<feBlend mode="normal" in="SourceGraphic" in2="effect1_dropShadow_1_201" result="shape"/>
</filter>
</defs>
</svg>
