<svg width="24" height="24" viewBox="0 0 24 24" fill="none" xmlns="http://www.w3.org/2000/svg">
<path d="M4.3845 19C4.00033 19 3.6735 18.8653 3.404 18.596C3.13467 18.3265 3 17.9997 3 17.6155V6.3845C3 6.00033 3.13467 5.6735 3.404 5.404C3.6735 5.13467 4.00033 5 4.3845 5H19.6155C19.9997 5 20.3265 5.13467 20.596 5.404C20.8653 5.6735 21 6.00033 21 6.3845V17.6155C21 17.9997 20.8653 18.3265 20.596 18.596C20.3265 18.8653 19.9997 19 19.6155 19H4.3845ZM12 11.8537L3.76925 6.35575V17.6155C3.76925 17.7948 3.82692 17.9423 3.94225 18.0577C4.05775 18.1731 4.20517 18.2308 4.3845 18.2308H19.6155C19.7948 18.2308 19.9422 18.1731 20.0578 18.0577C20.1731 17.9423 20.2307 17.7948 20.2307 17.6155V6.35575L12 11.8537ZM12 10.9693L19.8808 5.76925H4.14425L12 10.9693ZM3.76925 6.35575V5.76925V17.6155C3.76925 17.7948 3.82692 17.9423 3.94225 18.0577C4.05775 18.1731 4.20517 18.2308 4.3845 18.2308H3.76925V6.35575Z" fill="#FF0000"/>
</svg>
