<svg width="24" height="24" viewBox="0 0 24 24" fill="none" xmlns="http://www.w3.org/2000/svg">
<path d="M5.6155 20C5.15517 20 4.77083 19.8458 4.4625 19.5375C4.15417 19.2292 4 18.8448 4 18.3845V5.6155C4 5.15517 4.15417 4.77083 4.4625 4.4625C4.77083 4.15417 5.15517 4 5.6155 4H15.577L20 8.423V18.3845C20 18.8448 19.8458 19.2292 19.5375 19.5375C19.2292 19.8458 18.8448 20 18.3845 20H5.6155ZM5.6155 19H18.3845C18.564 19 18.7115 18.9423 18.827 18.827C18.9423 18.7115 19 18.564 19 18.3845V9H15V5H5.6155C5.436 5 5.2885 5.05767 5.173 5.173C5.05767 5.2885 5 5.436 5 5.6155V18.3845C5 18.564 5.05767 18.7115 5.173 18.827C5.2885 18.9423 5.436 19 5.6155 19ZM7.5 16H16.5V15H7.5V16ZM7.5 9H12V8H7.5V9ZM7.5 12.5H16.5V11.5H7.5V12.5Z" fill="#FF0000"/>
</svg>
