<svg width="392" height="300" viewBox="0 0 392 300" fill="none" xmlns="http://www.w3.org/2000/svg">
<g clip-path="url(#clip0_170_65)">
<mask id="path-3-inside-1_170_65" fill="white">
<path d="M0 260H392V300H0V260Z"/>
</mask>
<path d="M0 260V261H392V260V259H0V260Z" fill="white" mask="url(#path-3-inside-1_170_65)"/>
<path d="M136.766 286.192C134.99 286.192 133.198 285.664 132.206 284.896L133.086 282.944C134.03 283.632 135.438 284.112 136.782 284.112C138.318 284.112 138.942 283.6 138.942 282.912C138.942 280.816 132.43 282.256 132.43 278.096C132.43 276.192 133.966 274.608 137.15 274.608C138.558 274.608 139.998 274.944 141.038 275.6L140.238 277.568C139.198 276.976 138.126 276.688 137.134 276.688C135.598 276.688 135.006 277.264 135.006 277.968C135.006 280.032 141.518 278.608 141.518 282.72C141.518 284.592 139.966 286.192 136.766 286.192ZM151.657 286L150.665 283.6H145.465L144.473 286H141.817L146.809 274.8H149.369L154.377 286H151.657ZM146.297 281.632H149.849L148.073 277.344L146.297 281.632ZM163.251 274.8H165.811V286H163.683L158.099 279.2V286H155.539V274.8H157.683L163.251 281.6V274.8ZM170.525 286.192C169.021 286.192 167.693 285.616 166.877 284.56L168.317 282.832C168.925 283.648 169.597 284.064 170.397 284.064C171.437 284.064 171.981 283.44 171.981 282.208V276.88H168.045V274.8H174.557V282.064C174.557 284.832 173.165 286.192 170.525 286.192ZM185.251 286L184.259 283.6H179.059L178.067 286H175.411L180.403 274.8H182.963L187.971 286H185.251ZM179.891 281.632H183.443L181.667 277.344L179.891 281.632ZM198.173 274.8L193.821 282.032V286H191.229V282L186.893 274.8H189.645L192.637 279.776L195.629 274.8H198.173ZM211.357 283.504V280.224H213.725V284.768C212.493 285.696 210.797 286.192 209.197 286.192C205.677 286.192 203.085 283.776 203.085 280.4C203.085 277.024 205.677 274.608 209.245 274.608C211.213 274.608 212.845 275.28 213.933 276.544L212.269 278.08C211.453 277.216 210.509 276.816 209.373 276.816C207.197 276.816 205.709 278.272 205.709 280.4C205.709 282.496 207.197 283.984 209.341 283.984C210.045 283.984 210.701 283.856 211.357 283.504ZM221.109 286.192C217.925 286.192 216.037 284.368 216.037 281.072V274.8H218.629V280.976C218.629 283.104 219.557 283.984 221.125 283.984C222.709 283.984 223.621 283.104 223.621 280.976V274.8H226.181V281.072C226.181 284.368 224.293 286.192 221.109 286.192ZM233.59 274.8C236.582 274.8 238.454 276.352 238.454 278.864C238.454 281.36 236.582 282.912 233.59 282.912H231.334V286H228.742V274.8H233.59ZM233.446 280.8C235.03 280.8 235.83 280.08 235.83 278.864C235.83 277.632 235.03 276.912 233.446 276.912H231.334V280.8H233.446ZM242.312 286V276.912H238.728V274.8H248.488V276.912H244.904V286H242.312ZM257.688 286L256.696 283.6H251.496L250.504 286H247.848L252.84 274.8H255.4L260.408 286H257.688ZM252.328 281.632H255.88L254.104 277.344L252.328 281.632Z" fill="white"/>
<path d="M91.6085 89.28H83.4885V94.78H90.7285V96.06H83.4885V102H82.0085V88H91.6085V89.28ZM95.5295 93.54C96.1895 92.14 97.5295 91.4 99.4695 91.4V92.78C99.3495 92.78 99.2295 92.76 99.1295 92.76C96.9295 92.76 95.5895 94.16 95.5895 96.64V102H94.1695V91.48H95.5295V93.54ZM106.243 102.1C103.163 102.1 100.883 99.86 100.883 96.74C100.883 93.62 103.163 91.4 106.243 91.4C109.323 91.4 111.583 93.62 111.583 96.74C111.583 99.86 109.323 102.1 106.243 102.1ZM106.243 100.84C108.483 100.84 110.143 99.2 110.143 96.74C110.143 94.28 108.483 92.64 106.243 92.64C104.003 92.64 102.323 94.28 102.323 96.74C102.323 99.2 104.003 100.84 106.243 100.84ZM127.602 91.4C130.162 91.4 131.842 92.88 131.842 95.9V102H130.422V96.04C130.422 93.82 129.302 92.68 127.402 92.68C125.242 92.68 123.882 94.08 123.882 96.48V102H122.462V96.04C122.462 93.82 121.342 92.68 119.422 92.68C117.282 92.68 115.902 94.08 115.902 96.48V102H114.482V91.48H115.842V93.4C116.582 92.14 117.942 91.4 119.702 91.4C121.442 91.4 122.802 92.14 123.442 93.62C124.202 92.26 125.702 91.4 127.602 91.4ZM146.347 91.4C149.347 91.4 151.587 93.56 151.587 96.74C151.587 99.92 149.347 102.1 146.347 102.1C144.607 102.1 143.147 101.34 142.287 99.92V102H140.927V87.16H142.347V93.48C143.227 92.12 144.667 91.4 146.347 91.4ZM146.247 100.84C148.467 100.84 150.167 99.2 150.167 96.74C150.167 94.28 148.467 92.64 146.247 92.64C144.007 92.64 142.327 94.28 142.327 96.74C142.327 99.2 144.007 100.84 146.247 100.84ZM162.542 91.48H163.962V102H162.602V100.08C161.862 101.36 160.502 102.1 158.822 102.1C156.142 102.1 154.382 100.6 154.382 97.58V91.48H155.802V97.44C155.802 99.68 156.962 100.82 158.962 100.82C161.162 100.82 162.542 99.4 162.542 97V91.48ZM170.759 102.1C169.019 102.1 167.339 101.54 166.479 100.8L167.119 99.68C167.959 100.34 169.379 100.86 170.859 100.86C172.859 100.86 173.679 100.18 173.679 99.14C173.679 96.4 166.859 98.56 166.859 94.4C166.859 92.68 168.339 91.4 171.019 91.4C172.379 91.4 173.859 91.78 174.739 92.38L174.119 93.52C173.199 92.88 172.099 92.62 171.019 92.62C169.119 92.62 168.279 93.36 168.279 94.36C168.279 97.2 175.099 95.06 175.099 99.1C175.099 100.92 173.499 102.1 170.759 102.1ZM178.444 89.18C177.864 89.18 177.404 88.72 177.404 88.16C177.404 87.62 177.864 87.16 178.444 87.16C179.024 87.16 179.484 87.6 179.484 88.14C179.484 88.72 179.044 89.18 178.444 89.18ZM177.724 102V91.48H179.144V102H177.724ZM188.455 91.4C191.015 91.4 192.775 92.88 192.775 95.9V102H191.355V96.04C191.355 93.82 190.195 92.68 188.195 92.68C185.935 92.68 184.515 94.08 184.515 96.48V102H183.095V91.48H184.455V93.42C185.215 92.14 186.635 91.4 188.455 91.4ZM205.849 96.74C205.849 96.86 205.829 97.02 205.829 97.18H197.029C197.189 99.38 198.869 100.84 201.169 100.84C202.449 100.84 203.589 100.38 204.389 99.46L205.189 100.38C204.249 101.5 202.789 102.1 201.129 102.1C197.849 102.1 195.609 99.86 195.609 96.74C195.609 93.62 197.789 91.4 200.749 91.4C203.709 91.4 205.849 93.58 205.849 96.74ZM200.749 92.62C198.709 92.62 197.209 94.06 197.029 96.12H204.489C204.309 94.06 202.809 92.62 200.749 92.62ZM211.56 102.1C209.82 102.1 208.14 101.54 207.28 100.8L207.92 99.68C208.76 100.34 210.18 100.86 211.66 100.86C213.66 100.86 214.48 100.18 214.48 99.14C214.48 96.4 207.66 98.56 207.66 94.4C207.66 92.68 209.14 91.4 211.82 91.4C213.18 91.4 214.66 91.78 215.54 92.38L214.92 93.52C214 92.88 212.9 92.62 211.82 92.62C209.92 92.62 209.08 93.36 209.08 94.36C209.08 97.2 215.9 95.06 215.9 99.1C215.9 100.92 214.3 102.1 211.56 102.1ZM221.345 102.1C219.605 102.1 217.925 101.54 217.065 100.8L217.705 99.68C218.545 100.34 219.965 100.86 221.445 100.86C223.445 100.86 224.265 100.18 224.265 99.14C224.265 96.4 217.445 98.56 217.445 94.4C217.445 92.68 218.925 91.4 221.605 91.4C222.965 91.4 224.445 91.78 225.325 92.38L224.705 93.52C223.785 92.88 222.685 92.62 221.605 92.62C219.705 92.62 218.865 93.36 218.865 94.36C218.865 97.2 225.685 95.06 225.685 99.1C225.685 100.92 224.085 102.1 221.345 102.1ZM237.904 102.1C234.764 102.1 232.484 99.88 232.484 96.74C232.484 93.6 234.764 91.4 237.904 91.4C239.684 91.4 241.184 92.1 242.024 93.48L240.964 94.2C240.244 93.14 239.124 92.64 237.904 92.64C235.604 92.64 233.924 94.28 233.924 96.74C233.924 99.22 235.604 100.84 237.904 100.84C239.124 100.84 240.244 100.36 240.964 99.3L242.024 100.02C241.184 101.38 239.684 102.1 237.904 102.1ZM248.494 91.4C251.214 91.4 252.754 92.76 252.754 95.48V102H251.394V100.36C250.754 101.44 249.514 102.1 247.774 102.1C245.394 102.1 243.934 100.86 243.934 99.04C243.934 97.42 244.974 96.06 247.994 96.06H251.334V95.42C251.334 93.62 250.314 92.64 248.354 92.64C246.994 92.64 245.714 93.12 244.854 93.88L244.214 92.82C245.274 91.92 246.834 91.4 248.494 91.4ZM247.994 100.98C249.594 100.98 250.774 100.22 251.334 98.84V97.12H248.034C245.994 97.12 245.334 97.92 245.334 99C245.334 100.22 246.314 100.98 247.994 100.98ZM257.971 93.54C258.631 92.14 259.971 91.4 261.911 91.4V92.78C261.791 92.78 261.671 92.76 261.571 92.76C259.371 92.76 258.031 94.16 258.031 96.64V102H256.611V91.48H257.971V93.54ZM272.564 87.16H273.984V102H272.624V99.92C271.764 101.34 270.304 102.1 268.564 102.1C265.564 102.1 263.324 99.92 263.324 96.74C263.324 93.56 265.564 91.4 268.564 91.4C270.244 91.4 271.684 92.12 272.564 93.48V87.16ZM268.684 100.84C270.904 100.84 272.584 99.2 272.584 96.74C272.584 94.28 270.904 92.64 268.684 92.64C266.444 92.64 264.764 94.28 264.764 96.74C264.764 99.2 266.444 100.84 268.684 100.84ZM280.759 102.1C279.019 102.1 277.339 101.54 276.479 100.8L277.119 99.68C277.959 100.34 279.379 100.86 280.859 100.86C282.859 100.86 283.679 100.18 283.679 99.14C283.679 96.4 276.859 98.56 276.859 94.4C276.859 92.68 278.339 91.4 281.019 91.4C282.379 91.4 283.859 91.78 284.739 92.38L284.119 93.52C283.199 92.88 282.099 92.62 281.019 92.62C279.119 92.62 278.279 93.36 278.279 94.36C278.279 97.2 285.099 95.06 285.099 99.1C285.099 100.92 283.499 102.1 280.759 102.1ZM297.999 100.34L298.499 101.36C297.939 101.86 297.099 102.1 296.279 102.1C294.299 102.1 293.199 100.98 293.199 99.04V92.68H291.319V91.48H293.199V89.18H294.619V91.48H297.819V92.68H294.619V98.96C294.619 100.2 295.259 100.88 296.439 100.88C297.019 100.88 297.599 100.7 297.999 100.34ZM305.012 102.1C301.932 102.1 299.652 99.86 299.652 96.74C299.652 93.62 301.932 91.4 305.012 91.4C308.092 91.4 310.352 93.62 310.352 96.74C310.352 99.86 308.092 102.1 305.012 102.1ZM305.012 100.84C307.252 100.84 308.912 99.2 308.912 96.74C308.912 94.28 307.252 92.64 305.012 92.64C302.772 92.64 301.092 94.28 301.092 96.74C301.092 99.2 302.772 100.84 305.012 100.84ZM77.4996 115.4C80.4996 115.4 82.7396 117.56 82.7396 120.74C82.7396 123.94 80.4996 126.1 77.4996 126.1C75.8196 126.1 74.3796 125.38 73.4996 124.02V129.88H72.0796V115.48H73.4396V117.56C74.2996 116.16 75.7596 115.4 77.4996 115.4ZM77.3996 124.84C79.6196 124.84 81.3196 123.2 81.3196 120.74C81.3196 118.3 79.6196 116.64 77.3996 116.64C75.1596 116.64 73.4796 118.3 73.4796 120.74C73.4796 123.2 75.1596 124.84 77.3996 124.84ZM89.2557 115.4C91.9757 115.4 93.5157 116.76 93.5157 119.48V126H92.1557V124.36C91.5157 125.44 90.2757 126.1 88.5357 126.1C86.1557 126.1 84.6957 124.86 84.6957 123.04C84.6957 121.42 85.7357 120.06 88.7557 120.06H92.0957V119.42C92.0957 117.62 91.0757 116.64 89.1157 116.64C87.7557 116.64 86.4757 117.12 85.6157 117.88L84.9757 116.82C86.0357 115.92 87.5957 115.4 89.2557 115.4ZM88.7557 124.98C90.3557 124.98 91.5357 124.22 92.0957 122.84V121.12H88.7957C86.7557 121.12 86.0957 121.92 86.0957 123C86.0957 124.22 87.0757 124.98 88.7557 124.98ZM101.772 126.1C98.6316 126.1 96.3516 123.88 96.3516 120.74C96.3516 117.6 98.6316 115.4 101.772 115.4C103.552 115.4 105.052 116.1 105.892 117.48L104.832 118.2C104.112 117.14 102.992 116.64 101.772 116.64C99.4716 116.64 97.7916 118.28 97.7916 120.74C97.7916 123.22 99.4716 124.84 101.772 124.84C102.992 124.84 104.112 124.36 104.832 123.3L105.892 124.02C105.052 125.38 103.552 126.1 101.772 126.1ZM116.665 126L112.425 120.72L109.945 123V126H108.525V111.16H109.945V121.22L116.225 115.48H117.985L113.485 119.78L118.405 126H116.665ZM124.021 115.4C126.741 115.4 128.281 116.76 128.281 119.48V126H126.921V124.36C126.281 125.44 125.041 126.1 123.301 126.1C120.921 126.1 119.461 124.86 119.461 123.04C119.461 121.42 120.501 120.06 123.521 120.06H126.861V119.42C126.861 117.62 125.841 116.64 123.881 116.64C122.521 116.64 121.241 117.12 120.381 117.88L119.741 116.82C120.801 115.92 122.361 115.4 124.021 115.4ZM123.521 124.98C125.121 124.98 126.301 124.22 126.861 122.84V121.12H123.561C121.521 121.12 120.861 121.92 120.861 123C120.861 124.22 121.841 124.98 123.521 124.98ZM140.557 115.48H141.917V124.72C141.917 128.34 140.137 129.98 136.657 129.98C134.737 129.98 132.857 129.4 131.757 128.36L132.477 127.28C133.477 128.18 134.997 128.72 136.617 128.72C139.277 128.72 140.497 127.5 140.497 124.9V123.56C139.617 124.9 138.117 125.6 136.397 125.6C133.397 125.6 131.117 123.5 131.117 120.48C131.117 117.46 133.397 115.4 136.397 115.4C138.157 115.4 139.677 116.12 140.557 117.5V115.48ZM136.537 124.34C138.857 124.34 140.537 122.76 140.537 120.48C140.537 118.2 138.857 116.64 136.537 116.64C134.217 116.64 132.557 118.2 132.557 120.48C132.557 122.76 134.217 124.34 136.537 124.34ZM146.608 113.18C146.028 113.18 145.568 112.72 145.568 112.16C145.568 111.62 146.028 111.16 146.608 111.16C147.188 111.16 147.648 111.6 147.648 112.14C147.648 112.72 147.208 113.18 146.608 113.18ZM145.888 126V115.48H147.308V126H145.888ZM156.619 115.4C159.179 115.4 160.939 116.88 160.939 119.9V126H159.519V120.04C159.519 117.82 158.359 116.68 156.359 116.68C154.099 116.68 152.679 118.08 152.679 120.48V126H151.259V115.48H152.619V117.42C153.379 116.14 154.799 115.4 156.619 115.4ZM173.214 115.48H174.574V124.72C174.574 128.34 172.794 129.98 169.314 129.98C167.394 129.98 165.514 129.4 164.414 128.36L165.134 127.28C166.134 128.18 167.654 128.72 169.274 128.72C171.934 128.72 173.154 127.5 173.154 124.9V123.56C172.274 124.9 170.774 125.6 169.054 125.6C166.054 125.6 163.774 123.5 163.774 120.48C163.774 117.46 166.054 115.4 169.054 115.4C170.814 115.4 172.334 116.12 173.214 117.5V115.48ZM169.194 124.34C171.514 124.34 173.194 122.76 173.194 120.48C173.194 118.2 171.514 116.64 169.194 116.64C166.874 116.64 165.214 118.2 165.214 120.48C165.214 122.76 166.874 124.34 169.194 124.34ZM178.704 123.92C179.324 123.92 179.764 124.4 179.764 125C179.764 125.34 179.684 125.6 179.484 126.16L178.644 128.92H177.684L178.364 126.02C177.944 125.9 177.644 125.52 177.644 125C177.644 124.38 178.104 123.92 178.704 123.92ZM194.397 126.12C190.197 126.12 187.077 123.1 187.077 119C187.077 114.9 190.197 111.88 194.417 111.88C196.457 111.88 198.297 112.56 199.537 113.92L198.597 114.86C197.457 113.7 196.057 113.2 194.457 113.2C191.077 113.2 188.537 115.68 188.537 119C188.537 122.32 191.077 124.8 194.457 124.8C196.057 124.8 197.457 124.3 198.597 123.12L199.537 124.06C198.297 125.42 196.457 126.12 194.397 126.12ZM203.752 117.54C204.412 116.14 205.752 115.4 207.692 115.4V116.78C207.572 116.78 207.452 116.76 207.352 116.76C205.152 116.76 203.812 118.16 203.812 120.64V126H202.392V115.48H203.752V117.54ZM219.346 120.74C219.346 120.86 219.326 121.02 219.326 121.18H210.526C210.686 123.38 212.366 124.84 214.666 124.84C215.946 124.84 217.086 124.38 217.886 123.46L218.686 124.38C217.746 125.5 216.286 126.1 214.626 126.1C211.346 126.1 209.106 123.86 209.106 120.74C209.106 117.62 211.286 115.4 214.246 115.4C217.206 115.4 219.346 117.58 219.346 120.74ZM214.246 116.62C212.206 116.62 210.706 118.06 210.526 120.12H217.986C217.806 118.06 216.306 116.62 214.246 116.62ZM225.623 115.4C228.343 115.4 229.883 116.76 229.883 119.48V126H228.523V124.36C227.883 125.44 226.643 126.1 224.903 126.1C222.523 126.1 221.063 124.86 221.063 123.04C221.063 121.42 222.103 120.06 225.123 120.06H228.463V119.42C228.463 117.62 227.443 116.64 225.483 116.64C224.123 116.64 222.843 117.12 221.983 117.88L221.343 116.82C222.403 115.92 223.963 115.4 225.623 115.4ZM225.123 124.98C226.723 124.98 227.903 124.22 228.463 122.84V121.12H225.163C223.123 121.12 222.463 121.92 222.463 123C222.463 124.22 223.443 124.98 225.123 124.98ZM238.78 124.34L239.28 125.36C238.72 125.86 237.88 126.1 237.06 126.1C235.08 126.1 233.98 124.98 233.98 123.04V116.68H232.1V115.48H233.98V113.18H235.4V115.48H238.6V116.68H235.4V122.96C235.4 124.2 236.04 124.88 237.22 124.88C237.8 124.88 238.38 124.7 238.78 124.34ZM242.585 113.18C242.005 113.18 241.545 112.72 241.545 112.16C241.545 111.62 242.005 111.16 242.585 111.16C243.165 111.16 243.625 111.6 243.625 112.14C243.625 112.72 243.185 113.18 242.585 113.18ZM241.865 126V115.48H243.285V126H241.865ZM254.676 115.48H256.076L251.396 126H249.936L245.276 115.48H246.756L250.696 124.44L254.676 115.48ZM273.47 123.72V119H274.89V124.34C273.57 125.52 271.69 126.12 269.75 126.12C265.49 126.12 262.37 123.1 262.37 119C262.37 114.9 265.49 111.88 269.77 111.88C271.89 111.88 273.73 112.56 274.97 113.9L274.05 114.84C272.87 113.68 271.47 113.2 269.83 113.2C266.37 113.2 263.83 115.66 263.83 119C263.83 122.32 266.37 124.8 269.81 124.8C271.15 124.8 272.39 124.5 273.47 123.72ZM280.139 117.54C280.799 116.14 282.139 115.4 284.079 115.4V116.78C283.959 116.78 283.839 116.76 283.739 116.76C281.539 116.76 280.199 118.16 280.199 120.64V126H278.779V115.48H280.139V117.54ZM290.31 115.4C293.03 115.4 294.57 116.76 294.57 119.48V126H293.21V124.36C292.57 125.44 291.33 126.1 289.59 126.1C287.21 126.1 285.75 124.86 285.75 123.04C285.75 121.42 286.79 120.06 289.81 120.06H293.15V119.42C293.15 117.62 292.13 116.64 290.17 116.64C288.81 116.64 287.53 117.12 286.67 117.88L286.03 116.82C287.09 115.92 288.65 115.4 290.31 115.4ZM289.81 124.98C291.41 124.98 292.59 124.22 293.15 122.84V121.12H289.85C287.81 121.12 287.15 121.92 287.15 123C287.15 124.22 288.13 124.98 289.81 124.98ZM298.667 114.18C298.667 112.3 299.787 111.06 301.847 111.06C302.627 111.06 303.427 111.28 303.947 111.72L303.467 112.78C303.067 112.44 302.507 112.26 301.907 112.26C300.687 112.26 300.047 112.94 300.047 114.24V115.48H303.287V116.68H300.087V126H298.667V116.68H296.787V115.48H298.667V114.18ZM307.527 111.16C308.107 111.16 308.567 111.6 308.567 112.14C308.567 112.72 308.127 113.18 307.527 113.18C306.947 113.18 306.487 112.72 306.487 112.16C306.487 111.62 306.947 111.16 307.527 111.16ZM306.807 126V115.48H308.227V126H306.807ZM320.517 126H318.897L315.557 121.6L312.197 126H310.597L314.757 120.6L310.797 115.48H312.397L315.557 119.6L318.717 115.48H320.277L316.317 120.6L320.517 126ZM71.2772 139.4C73.9972 139.4 75.5372 140.76 75.5372 143.48V150H74.1772V148.36C73.5372 149.44 72.2972 150.1 70.5572 150.1C68.1772 150.1 66.7172 148.86 66.7172 147.04C66.7172 145.42 67.7572 144.06 70.7772 144.06H74.1172V143.42C74.1172 141.62 73.0972 140.64 71.1372 140.64C69.7772 140.64 68.4972 141.12 67.6372 141.88L66.9972 140.82C68.0572 139.92 69.6172 139.4 71.2772 139.4ZM70.7772 148.98C72.3772 148.98 73.5572 148.22 74.1172 146.84V145.12H70.8172C68.7772 145.12 68.1172 145.92 68.1172 147C68.1172 148.22 69.0972 148.98 70.7772 148.98ZM79.3941 150V135.16H80.8141V150H79.3941ZM98.9052 139.48H100.205L96.2252 150H94.8852L91.5652 141.38L88.2452 150H86.9052L82.9452 139.48H84.3052L87.6052 148.42L90.9852 139.48H92.2052L95.5652 148.42L98.9052 139.48ZM105.711 139.4C108.431 139.4 109.971 140.76 109.971 143.48V150H108.611V148.36C107.971 149.44 106.731 150.1 104.991 150.1C102.611 150.1 101.151 148.86 101.151 147.04C101.151 145.42 102.191 144.06 105.211 144.06H108.551V143.42C108.551 141.62 107.531 140.64 105.571 140.64C104.211 140.64 102.931 141.12 102.071 141.88L101.431 140.82C102.491 139.92 104.051 139.4 105.711 139.4ZM105.211 148.98C106.811 148.98 107.991 148.22 108.551 146.84V145.12H105.251C103.211 145.12 102.551 145.92 102.551 147C102.551 148.22 103.531 148.98 105.211 148.98ZM121.072 139.48H122.472L117.212 151.26C116.332 153.32 115.212 153.98 113.712 153.98C112.732 153.98 111.792 153.66 111.152 153.02L111.812 151.96C112.332 152.48 112.972 152.76 113.732 152.76C114.672 152.76 115.312 152.32 115.912 151L116.372 149.98L111.672 139.48H113.152L117.112 148.42L121.072 139.48ZM127.175 150.1C125.435 150.1 123.755 149.54 122.895 148.8L123.535 147.68C124.375 148.34 125.795 148.86 127.275 148.86C129.275 148.86 130.095 148.18 130.095 147.14C130.095 144.4 123.275 146.56 123.275 142.4C123.275 140.68 124.755 139.4 127.435 139.4C128.795 139.4 130.275 139.78 131.155 140.38L130.535 141.52C129.615 140.88 128.515 140.62 127.435 140.62C125.535 140.62 124.695 141.36 124.695 142.36C124.695 145.2 131.515 143.06 131.515 147.1C131.515 148.92 129.915 150.1 127.175 150.1ZM144.735 139.4C147.295 139.4 149.055 140.88 149.055 143.9V150H147.635V144.04C147.635 141.82 146.475 140.68 144.475 140.68C142.215 140.68 140.795 142.08 140.795 144.48V150H139.375V139.48H140.735V141.42C141.495 140.14 142.915 139.4 144.735 139.4ZM156.59 139.4C159.31 139.4 160.85 140.76 160.85 143.48V150H159.49V148.36C158.85 149.44 157.61 150.1 155.87 150.1C153.49 150.1 152.03 148.86 152.03 147.04C152.03 145.42 153.07 144.06 156.09 144.06H159.43V143.42C159.43 141.62 158.41 140.64 156.45 140.64C155.09 140.64 153.81 141.12 152.95 141.88L152.31 140.82C153.37 139.92 154.93 139.4 156.59 139.4ZM156.09 148.98C157.69 148.98 158.87 148.22 159.43 146.84V145.12H156.13C154.09 145.12 153.43 145.92 153.43 147C153.43 148.22 154.41 148.98 156.09 148.98ZM165.427 137.18C164.847 137.18 164.387 136.72 164.387 136.16C164.387 135.62 164.847 135.16 165.427 135.16C166.007 135.16 166.467 135.6 166.467 136.14C166.467 136.72 166.027 137.18 165.427 137.18ZM164.707 150V139.48H166.127V150H164.707ZM170.078 150V135.16H171.498V150H170.078ZM178.269 150.1C176.529 150.1 174.849 149.54 173.989 148.8L174.629 147.68C175.469 148.34 176.889 148.86 178.369 148.86C180.369 148.86 181.189 148.18 181.189 147.14C181.189 144.4 174.369 146.56 174.369 142.4C174.369 140.68 175.849 139.4 178.529 139.4C179.889 139.4 181.369 139.78 182.249 140.38L181.629 141.52C180.709 140.88 179.609 140.62 178.529 140.62C176.629 140.62 175.789 141.36 175.789 142.36C175.789 145.2 182.609 143.06 182.609 147.1C182.609 148.92 181.009 150.1 178.269 150.1ZM191.188 137.18C190.608 137.18 190.148 136.72 190.148 136.16C190.148 135.62 190.608 135.16 191.188 135.16C191.768 135.16 192.228 135.6 192.228 136.14C192.228 136.72 191.788 137.18 191.188 137.18ZM190.468 150V139.48H191.888V150H190.468ZM200.879 148.34L201.379 149.36C200.819 149.86 199.979 150.1 199.159 150.1C197.179 150.1 196.079 148.98 196.079 147.04V140.68H194.199V139.48H196.079V137.18H197.499V139.48H200.699V140.68H197.499V146.96C197.499 148.2 198.139 148.88 199.319 148.88C199.899 148.88 200.479 148.7 200.879 148.34ZM223.339 139.48H224.639L220.659 150H219.319L215.999 141.38L212.679 150H211.339L207.379 139.48H208.739L212.039 148.42L215.419 139.48H216.639L219.999 148.42L223.339 139.48ZM227.497 137.18C226.917 137.18 226.457 136.72 226.457 136.16C226.457 135.62 226.917 135.16 227.497 135.16C228.077 135.16 228.537 135.6 228.537 136.14C228.537 136.72 228.097 137.18 227.497 137.18ZM226.777 150V139.48H228.197V150H226.777ZM237.188 148.34L237.688 149.36C237.128 149.86 236.288 150.1 235.468 150.1C233.488 150.1 232.388 148.98 232.388 147.04V140.68H230.508V139.48H232.388V137.18H233.808V139.48H237.008V140.68H233.808V146.96C233.808 148.2 234.448 148.88 235.628 148.88C236.208 148.88 236.788 148.7 237.188 148.34ZM245.633 139.4C248.193 139.4 249.953 140.88 249.953 143.9V150H248.533V144.04C248.533 141.82 247.373 140.68 245.373 140.68C243.113 140.68 241.693 142.08 241.693 144.48V150H240.273V135.16H241.693V141.32C242.473 140.1 243.853 139.4 245.633 139.4ZM267.283 139.48H268.643V153.88H267.223V148.02C266.343 149.38 264.903 150.1 263.223 150.1C260.223 150.1 257.983 147.94 257.983 144.74C257.983 141.56 260.223 139.4 263.223 139.4C264.963 139.4 266.423 140.16 267.283 141.56V139.48ZM263.343 148.84C265.563 148.84 267.243 147.2 267.243 144.74C267.243 142.3 265.563 140.64 263.343 140.64C261.103 140.64 259.423 142.3 259.423 144.74C259.423 147.2 261.103 148.84 263.343 148.84ZM280.657 139.48H282.077V150H280.717V148.08C279.977 149.36 278.617 150.1 276.937 150.1C274.257 150.1 272.497 148.6 272.497 145.58V139.48H273.917V145.44C273.917 147.68 275.077 148.82 277.077 148.82C279.277 148.82 280.657 147.4 280.657 145V139.48ZM289.734 139.4C292.454 139.4 293.994 140.76 293.994 143.48V150H292.634V148.36C291.994 149.44 290.754 150.1 289.014 150.1C286.634 150.1 285.174 148.86 285.174 147.04C285.174 145.42 286.214 144.06 289.234 144.06H292.574V143.42C292.574 141.62 291.554 140.64 289.594 140.64C288.234 140.64 286.954 141.12 286.094 141.88L285.454 140.82C286.514 139.92 288.074 139.4 289.734 139.4ZM289.234 148.98C290.834 148.98 292.014 148.22 292.574 146.84V145.12H289.274C287.234 145.12 286.574 145.92 286.574 147C286.574 148.22 287.554 148.98 289.234 148.98ZM297.851 150V135.16H299.271V150H297.851ZM303.942 137.18C303.362 137.18 302.902 136.72 302.902 136.16C302.902 135.62 303.362 135.16 303.942 135.16C304.522 135.16 304.982 135.6 304.982 136.14C304.982 136.72 304.542 137.18 303.942 137.18ZM303.222 150V139.48H304.642V150H303.222ZM313.633 148.34L314.133 149.36C313.573 149.86 312.733 150.1 311.913 150.1C309.933 150.1 308.833 148.98 308.833 147.04V140.68H306.953V139.48H308.833V137.18H310.253V139.48H313.453V140.68H310.253V146.96C310.253 148.2 310.893 148.88 312.073 148.88C312.653 148.88 313.233 148.7 313.633 148.34ZM323.963 139.48H325.363L320.103 151.26C319.223 153.32 318.103 153.98 316.603 153.98C315.623 153.98 314.683 153.66 314.043 153.02L314.703 151.96C315.223 152.48 315.863 152.76 316.623 152.76C317.563 152.76 318.203 152.32 318.803 151L319.263 149.98L314.563 139.48H316.043L320.003 148.42L323.963 139.48ZM131.756 163.4C134.476 163.4 136.016 164.76 136.016 167.48V174H134.656V172.36C134.016 173.44 132.776 174.1 131.036 174.1C128.656 174.1 127.196 172.86 127.196 171.04C127.196 169.42 128.236 168.06 131.256 168.06H134.596V167.42C134.596 165.62 133.576 164.64 131.616 164.64C130.256 164.64 128.976 165.12 128.116 165.88L127.476 164.82C128.536 163.92 130.096 163.4 131.756 163.4ZM131.256 172.98C132.856 172.98 134.036 172.22 134.596 170.84V169.12H131.296C129.256 169.12 128.596 169.92 128.596 171C128.596 172.22 129.576 172.98 131.256 172.98ZM145.233 163.4C147.793 163.4 149.553 164.88 149.553 167.9V174H148.133V168.04C148.133 165.82 146.973 164.68 144.973 164.68C142.713 164.68 141.293 166.08 141.293 168.48V174H139.873V163.48H141.233V165.42C141.993 164.14 143.413 163.4 145.233 163.4ZM161.627 159.16H163.047V174H161.687V171.92C160.827 173.34 159.367 174.1 157.627 174.1C154.627 174.1 152.387 171.92 152.387 168.74C152.387 165.56 154.627 163.4 157.627 163.4C159.307 163.4 160.747 164.12 161.627 165.48V159.16ZM157.747 172.84C159.967 172.84 161.647 171.2 161.647 168.74C161.647 166.28 159.967 164.64 157.747 164.64C155.507 164.64 153.827 166.28 153.827 168.74C153.827 171.2 155.507 172.84 157.747 172.84ZM176.596 174.1C173.456 174.1 171.176 171.88 171.176 168.74C171.176 165.6 173.456 163.4 176.596 163.4C178.376 163.4 179.876 164.1 180.716 165.48L179.656 166.2C178.936 165.14 177.816 164.64 176.596 164.64C174.296 164.64 172.616 166.28 172.616 168.74C172.616 171.22 174.296 172.84 176.596 172.84C177.816 172.84 178.936 172.36 179.656 171.3L180.716 172.02C179.876 173.38 178.376 174.1 176.596 174.1ZM184.865 165.54C185.525 164.14 186.865 163.4 188.805 163.4V164.78C188.685 164.78 188.565 164.76 188.465 164.76C186.265 164.76 184.925 166.16 184.925 168.64V174H183.505V163.48H184.865V165.54ZM200.459 168.74C200.459 168.86 200.439 169.02 200.439 169.18H191.639C191.799 171.38 193.479 172.84 195.779 172.84C197.059 172.84 198.199 172.38 198.999 171.46L199.799 172.38C198.859 173.5 197.399 174.1 195.739 174.1C192.459 174.1 190.219 171.86 190.219 168.74C190.219 165.62 192.399 163.4 195.359 163.4C198.319 163.4 200.459 165.58 200.459 168.74ZM195.359 164.62C193.319 164.62 191.819 166.06 191.639 168.12H199.099C198.919 166.06 197.419 164.62 195.359 164.62ZM206.736 163.4C209.456 163.4 210.996 164.76 210.996 167.48V174H209.636V172.36C208.996 173.44 207.756 174.1 206.016 174.1C203.636 174.1 202.176 172.86 202.176 171.04C202.176 169.42 203.216 168.06 206.236 168.06H209.576V167.42C209.576 165.62 208.556 164.64 206.596 164.64C205.236 164.64 203.956 165.12 203.096 165.88L202.456 164.82C203.516 163.92 205.076 163.4 206.736 163.4ZM206.236 172.98C207.836 172.98 209.016 172.22 209.576 170.84V169.12H206.276C204.236 169.12 203.576 169.92 203.576 171C203.576 172.22 204.556 172.98 206.236 172.98ZM219.893 172.34L220.393 173.36C219.833 173.86 218.993 174.1 218.173 174.1C216.193 174.1 215.093 172.98 215.093 171.04V164.68H213.213V163.48H215.093V161.18H216.513V163.48H219.713V164.68H216.513V170.96C216.513 172.2 217.153 172.88 218.333 172.88C218.913 172.88 219.493 172.7 219.893 172.34ZM223.698 161.18C223.118 161.18 222.658 160.72 222.658 160.16C222.658 159.62 223.118 159.16 223.698 159.16C224.278 159.16 224.738 159.6 224.738 160.14C224.738 160.72 224.298 161.18 223.698 161.18ZM222.978 174V163.48H224.398V174H222.978ZM235.789 163.48H237.189L232.509 174H231.049L226.389 163.48H227.869L231.809 172.44L235.789 163.48ZM239.909 161.18C239.329 161.18 238.869 160.72 238.869 160.16C238.869 159.62 239.329 159.16 239.909 159.16C240.489 159.16 240.949 159.6 240.949 160.14C240.949 160.72 240.509 161.18 239.909 161.18ZM239.189 174V163.48H240.609V174H239.189ZM249.6 172.34L250.1 173.36C249.54 173.86 248.7 174.1 247.88 174.1C245.9 174.1 244.8 172.98 244.8 171.04V164.68H242.92V163.48H244.8V161.18H246.22V163.48H249.42V164.68H246.22V170.96C246.22 172.2 246.86 172.88 248.04 172.88C248.62 172.88 249.2 172.7 249.6 172.34ZM259.93 163.48H261.33L256.07 175.26C255.19 177.32 254.07 177.98 252.57 177.98C251.59 177.98 250.65 177.66 250.01 177.02L250.67 175.96C251.19 176.48 251.83 176.76 252.59 176.76C253.53 176.76 254.17 176.32 254.77 175L255.23 173.98L250.53 163.48H252.01L255.97 172.42L259.93 163.48ZM262.786 174.1C262.206 174.1 261.726 173.62 261.726 173C261.726 172.38 262.206 171.92 262.786 171.92C263.366 171.92 263.866 172.38 263.866 173C263.866 173.62 263.366 174.1 262.786 174.1Z" fill="white"/>
<path d="M-13.7607 -0.75001L-9.51074 8.74999C-15.3441 12.5833 -19.5941 17.6667 -22.2607 24C-24.9274 30.3333 -25.4274 38.4167 -23.7607 48.25L-35.0107 39.25C-29.6774 36.5833 -24.8441 35.75 -20.5107 36.75C-16.0107 37.75 -12.5107 40 -10.0107 43.5C-7.34407 46.8333 -6.01074 51 -6.01074 56C-6.01074 61.6667 -7.84407 66.75 -11.5107 71.25C-15.1774 75.5833 -19.8441 77.75 -25.5107 77.75C-32.3441 77.75 -37.4274 75 -40.7607 69.5C-43.9274 64 -45.5107 57.6667 -45.5107 50.5C-45.5107 43.6667 -44.4274 36.8333 -42.2607 30C-40.0941 23 -36.6774 16.75 -32.0107 11.25C-27.3441 5.74999 -21.2607 1.74999 -13.7607 -0.75001ZM37.2393 -0.500013L41.4893 9C35.6559 12.8333 31.4059 17.9167 28.7393 24.25C26.0726 30.5833 25.5726 38.6667 27.2393 48.5L15.9893 39.5C21.3226 36.8333 26.1559 36 30.4893 37C34.9893 38 38.4893 40.25 40.9893 43.75C43.6559 47.0833 44.9893 51.25 44.9893 56.25C44.9893 61.9167 43.1559 67 39.4893 71.5C35.8226 75.8333 31.1559 78 25.4893 78C18.6559 78 13.5726 75.25 10.2393 69.75C7.07259 64.25 5.48926 57.9167 5.48926 50.75C5.48926 43.9167 6.5726 37.0833 8.73926 30.25C10.9059 23.25 14.3226 17 18.9893 11.5C23.6559 6 29.7393 1.99999 37.2393 -0.500013Z" fill="white"/>
<path d="M354.245 255L349.995 245.5C355.828 241.5 360.078 236.333 362.745 230C365.412 223.667 365.912 215.667 364.245 206L375.495 215C370.162 217.5 365.245 218.333 360.745 217.5C356.412 216.5 352.912 214.333 350.245 211C347.745 207.5 346.495 203.25 346.495 198.25C346.495 192.583 348.328 187.583 351.995 183.25C355.662 178.75 360.328 176.5 365.995 176.5C372.995 176.5 378.078 179.25 381.245 184.75C384.412 190.25 385.995 196.583 385.995 203.75C385.995 210.583 384.912 217.5 382.745 224.5C380.578 231.333 377.162 237.5 372.495 243C367.995 248.5 361.912 252.5 354.245 255ZM405.245 255L400.995 245.5C406.828 241.5 411.078 236.333 413.745 230C416.412 223.667 416.912 215.667 415.245 206L426.495 215C421.162 217.5 416.245 218.333 411.745 217.5C407.412 216.5 403.912 214.333 401.245 211C398.745 207.5 397.495 203.25 397.495 198.25C397.495 192.583 399.328 187.583 402.995 183.25C406.662 178.75 411.328 176.5 416.995 176.5C423.995 176.5 429.078 179.25 432.245 184.75C435.412 190.25 436.995 196.583 436.995 203.75C436.995 210.583 435.912 217.5 433.745 224.5C431.578 231.333 428.162 237.5 423.495 243C418.995 248.5 412.912 252.5 405.245 255Z" fill="white"/>
</g>
<rect x="0.5" y="0.5" width="391" height="299" stroke="url(#paint0_linear_170_65)"/>
<defs>
<linearGradient id="paint0_linear_170_65" x1="196" y1="0" x2="196" y2="300" gradientUnits="userSpaceOnUse">
<stop stop-color="white"/>
<stop offset="0.5" stop-color="#800000"/>
<stop offset="1" stop-color="white"/>
</linearGradient>
<clipPath id="clip0_170_65">
<rect width="392" height="300" fill="white"/>
</clipPath>
</defs>
</svg>
