<svg width="392" height="300" viewBox="0 0 392 300" fill="none" xmlns="http://www.w3.org/2000/svg">
<g clip-path="url(#clip0_170_59)">
<mask id="path-3-inside-1_170_59" fill="white">
<path d="M0 260H392V300H0V260Z"/>
</mask>
<path d="M0 260V261H392V260V259H0V260Z" fill="white" mask="url(#path-3-inside-1_170_59)"/>
<path d="M132.202 286H129.77L129.754 279.28L126.458 284.816H125.29L122.01 279.424V286H119.578V274.8H121.722L125.914 281.76L130.042 274.8H132.17L132.202 286ZM144.779 286H141.995L139.835 282.88H139.707H137.451V286H134.859V274.8H139.707C142.699 274.8 144.571 276.352 144.571 278.864C144.571 280.544 143.723 281.776 142.267 282.4L144.779 286ZM141.947 278.864C141.947 277.632 141.147 276.912 139.563 276.912H137.451V280.816H139.563C141.147 280.816 141.947 280.08 141.947 278.864ZM147.393 286.128C146.529 286.128 145.841 285.472 145.841 284.56C145.841 283.632 146.529 283.024 147.393 283.024C148.257 283.024 148.945 283.632 148.945 284.56C148.945 285.472 148.257 286.128 147.393 286.128ZM160.192 274.8C163.184 274.8 165.056 276.352 165.056 278.864C165.056 281.36 163.184 282.912 160.192 282.912H157.936V286H155.344V274.8H160.192ZM160.048 280.8C161.632 280.8 162.432 280.08 162.432 278.864C162.432 277.632 161.632 276.912 160.048 276.912H157.936V280.8H160.048ZM176.826 286H174.042L171.882 282.88H171.754H169.498V286H166.906V274.8H171.754C174.746 274.8 176.618 276.352 176.618 278.864C176.618 280.544 175.77 281.776 174.314 282.4L176.826 286ZM173.994 278.864C173.994 277.632 173.194 276.912 171.61 276.912H169.498V280.816H171.61C173.194 280.816 173.994 280.08 173.994 278.864ZM187.04 286L186.048 283.6H180.848L179.856 286H177.2L182.192 274.8H184.752L189.76 286H187.04ZM181.68 281.632H185.232L183.456 277.344L181.68 281.632ZM198.586 286L195.002 281.6L193.498 283.168V286H190.922V274.8H193.498V280.032L198.458 274.8H201.338L196.698 279.792L201.61 286H198.586ZM210.634 286L209.642 283.6H204.442L203.45 286H200.793L205.786 274.8H208.346L213.354 286H210.634ZM205.274 281.632H208.826L207.05 277.344L205.274 281.632ZM218.196 286.192C216.42 286.192 214.628 285.664 213.636 284.896L214.516 282.944C215.46 283.632 216.868 284.112 218.212 284.112C219.748 284.112 220.372 283.6 220.372 282.912C220.372 280.816 213.86 282.256 213.86 278.096C213.86 276.192 215.396 274.608 218.58 274.608C219.988 274.608 221.428 274.944 222.468 275.6L221.668 277.568C220.628 276.976 219.556 276.688 218.564 276.688C217.028 276.688 216.436 277.264 216.436 277.968C216.436 280.032 222.948 278.608 222.948 282.72C222.948 284.592 221.396 286.192 218.196 286.192ZM232.399 274.8H234.991V286H232.399V281.408H227.311V286H224.719V274.8H227.311V279.216H232.399V274.8ZM252.092 286H249.308L247.148 282.88H247.02H244.764V286H242.172V274.8H247.02C250.012 274.8 251.884 276.352 251.884 278.864C251.884 280.544 251.036 281.776 249.58 282.4L252.092 286ZM249.26 278.864C249.26 277.632 248.46 276.912 246.876 276.912H244.764V280.816H246.876C248.46 280.816 249.26 280.08 249.26 278.864ZM262.305 286L261.313 283.6H256.113L255.121 286H252.465L257.457 274.8H260.017L265.025 286H262.305ZM256.945 281.632H260.497L258.721 277.344L256.945 281.632ZM268.486 286.192C266.982 286.192 265.654 285.616 264.838 284.56L266.278 282.832C266.886 283.648 267.558 284.064 268.358 284.064C269.398 284.064 269.942 283.44 269.942 282.208V276.88H266.006V274.8H272.518V282.064C272.518 284.832 271.126 286.192 268.486 286.192Z" fill="white"/>
<path d="M71.8971 102.12C67.6971 102.12 64.5771 99.1 64.5771 95C64.5771 90.9 67.6971 87.88 71.9171 87.88C73.9571 87.88 75.7971 88.56 77.0371 89.92L76.0971 90.86C74.9571 89.7 73.5571 89.2 71.9571 89.2C68.5771 89.2 66.0371 91.68 66.0371 95C66.0371 98.32 68.5771 100.8 71.9571 100.8C73.5571 100.8 74.9571 100.3 76.0971 99.12L77.0371 100.06C75.7971 101.42 73.9571 102.12 71.8971 102.12ZM81.2521 93.54C81.9121 92.14 83.2521 91.4 85.1921 91.4V92.78C85.0721 92.78 84.9521 92.76 84.8521 92.76C82.6521 92.76 81.3121 94.16 81.3121 96.64V102H79.8921V91.48H81.2521V93.54ZM96.8455 96.74C96.8455 96.86 96.8255 97.02 96.8255 97.18H88.0255C88.1855 99.38 89.8655 100.84 92.1655 100.84C93.4455 100.84 94.5855 100.38 95.3855 99.46L96.1855 100.38C95.2455 101.5 93.7855 102.1 92.1255 102.1C88.8455 102.1 86.6055 99.86 86.6055 96.74C86.6055 93.62 88.7855 91.4 91.7455 91.4C94.7055 91.4 96.8455 93.58 96.8455 96.74ZM91.7455 92.62C89.7055 92.62 88.2055 94.06 88.0255 96.12H95.4855C95.3055 94.06 93.8055 92.62 91.7455 92.62ZM103.123 91.4C105.843 91.4 107.383 92.76 107.383 95.48V102H106.023V100.36C105.383 101.44 104.143 102.1 102.403 102.1C100.023 102.1 98.5629 100.86 98.5629 99.04C98.5629 97.42 99.6029 96.06 102.623 96.06H105.963V95.42C105.963 93.62 104.943 92.64 102.983 92.64C101.623 92.64 100.343 93.12 99.4829 93.88L98.8429 92.82C99.9029 91.92 101.463 91.4 103.123 91.4ZM102.623 100.98C104.223 100.98 105.403 100.22 105.963 98.84V97.12H102.663C100.623 97.12 99.9629 97.92 99.9629 99C99.9629 100.22 100.943 100.98 102.623 100.98ZM116.28 100.34L116.78 101.36C116.22 101.86 115.38 102.1 114.56 102.1C112.58 102.1 111.48 100.98 111.48 99.04V92.68H109.6V91.48H111.48V89.18H112.9V91.48H116.1V92.68H112.9V98.96C112.9 100.2 113.54 100.88 114.72 100.88C115.3 100.88 115.88 100.7 116.28 100.34ZM120.085 89.18C119.505 89.18 119.045 88.72 119.045 88.16C119.045 87.62 119.505 87.16 120.085 87.16C120.665 87.16 121.125 87.6 121.125 88.14C121.125 88.72 120.685 89.18 120.085 89.18ZM119.365 102V91.48H120.785V102H119.365ZM132.176 91.48H133.576L128.896 102H127.436L122.776 91.48H124.256L128.196 100.44L132.176 91.48ZM150.97 99.72V95H152.39V100.34C151.07 101.52 149.19 102.12 147.25 102.12C142.99 102.12 139.87 99.1 139.87 95C139.87 90.9 142.99 87.88 147.27 87.88C149.39 87.88 151.23 88.56 152.47 89.9L151.55 90.84C150.37 89.68 148.97 89.2 147.33 89.2C143.87 89.2 141.33 91.66 141.33 95C141.33 98.32 143.87 100.8 147.31 100.8C148.65 100.8 149.89 100.5 150.97 99.72ZM157.639 93.54C158.299 92.14 159.639 91.4 161.579 91.4V92.78C161.459 92.78 161.339 92.76 161.239 92.76C159.039 92.76 157.699 94.16 157.699 96.64V102H156.279V91.48H157.639V93.54ZM167.81 91.4C170.53 91.4 172.07 92.76 172.07 95.48V102H170.71V100.36C170.07 101.44 168.83 102.1 167.09 102.1C164.71 102.1 163.25 100.86 163.25 99.04C163.25 97.42 164.29 96.06 167.31 96.06H170.65V95.42C170.65 93.62 169.63 92.64 167.67 92.64C166.31 92.64 165.03 93.12 164.17 93.88L163.53 92.82C164.59 91.92 166.15 91.4 167.81 91.4ZM167.31 100.98C168.91 100.98 170.09 100.22 170.65 98.84V97.12H167.35C165.31 97.12 164.65 97.92 164.65 99C164.65 100.22 165.63 100.98 167.31 100.98ZM176.167 90.18C176.167 88.3 177.287 87.06 179.347 87.06C180.127 87.06 180.927 87.28 181.447 87.72L180.967 88.78C180.567 88.44 180.007 88.26 179.407 88.26C178.187 88.26 177.547 88.94 177.547 90.24V91.48H180.787V92.68H177.587V102H176.167V92.68H174.287V91.48H176.167V90.18ZM185.027 87.16C185.607 87.16 186.067 87.6 186.067 88.14C186.067 88.72 185.627 89.18 185.027 89.18C184.447 89.18 183.987 88.72 183.987 88.16C183.987 87.62 184.447 87.16 185.027 87.16ZM184.307 102V91.48H185.727V102H184.307ZM198.017 102H196.397L193.057 97.6L189.697 102H188.097L192.257 96.6L188.297 91.48H189.897L193.057 95.6L196.217 91.48H197.777L193.817 96.6L198.017 102ZM213.795 87.16H215.215V102H213.855V99.92C212.995 101.34 211.535 102.1 209.795 102.1C206.795 102.1 204.555 99.92 204.555 96.74C204.555 93.56 206.795 91.4 209.795 91.4C211.475 91.4 212.915 92.12 213.795 93.48V87.16ZM209.915 100.84C212.135 100.84 213.815 99.2 213.815 96.74C213.815 94.28 212.135 92.64 209.915 92.64C207.675 92.64 205.995 94.28 205.995 96.74C205.995 99.2 207.675 100.84 209.915 100.84ZM228.349 96.74C228.349 96.86 228.329 97.02 228.329 97.18H219.529C219.689 99.38 221.369 100.84 223.669 100.84C224.949 100.84 226.089 100.38 226.889 99.46L227.689 100.38C226.749 101.5 225.289 102.1 223.629 102.1C220.349 102.1 218.109 99.86 218.109 96.74C218.109 93.62 220.289 91.4 223.249 91.4C226.209 91.4 228.349 93.58 228.349 96.74ZM223.249 92.62C221.209 92.62 219.709 94.06 219.529 96.12H226.989C226.809 94.06 225.309 92.62 223.249 92.62ZM231.24 102V87.16H232.66V102H231.24ZM237.331 89.18C236.751 89.18 236.291 88.72 236.291 88.16C236.291 87.62 236.751 87.16 237.331 87.16C237.911 87.16 238.371 87.6 238.371 88.14C238.371 88.72 237.931 89.18 237.331 89.18ZM236.611 102V91.48H238.031V102H236.611ZM249.422 91.48H250.822L246.142 102H244.682L240.022 91.48H241.502L245.442 100.44L249.422 91.48ZM261.709 96.74C261.709 96.86 261.689 97.02 261.689 97.18H252.889C253.049 99.38 254.729 100.84 257.029 100.84C258.309 100.84 259.449 100.38 260.249 99.46L261.049 100.38C260.109 101.5 258.649 102.1 256.989 102.1C253.709 102.1 251.469 99.86 251.469 96.74C251.469 93.62 253.649 91.4 256.609 91.4C259.569 91.4 261.709 93.58 261.709 96.74ZM256.609 92.62C254.569 92.62 253.069 94.06 252.889 96.12H260.349C260.169 94.06 258.669 92.62 256.609 92.62ZM265.959 93.54C266.619 92.14 267.959 91.4 269.899 91.4V92.78C269.779 92.78 269.659 92.76 269.559 92.76C267.359 92.76 266.019 94.16 266.019 96.64V102H264.599V91.48H265.959V93.54ZM275.368 102.1C273.628 102.1 271.948 101.54 271.088 100.8L271.728 99.68C272.568 100.34 273.988 100.86 275.468 100.86C277.468 100.86 278.288 100.18 278.288 99.14C278.288 96.4 271.468 98.56 271.468 94.4C271.468 92.68 272.948 91.4 275.628 91.4C276.988 91.4 278.468 91.78 279.348 92.38L278.728 93.52C277.808 92.88 276.708 92.62 275.628 92.62C273.728 92.62 272.888 93.36 272.888 94.36C272.888 97.2 279.708 95.06 279.708 99.1C279.708 100.92 278.108 102.1 275.368 102.1ZM292.608 100.34L293.108 101.36C292.548 101.86 291.708 102.1 290.888 102.1C288.908 102.1 287.808 100.98 287.808 99.04V92.68H285.928V91.48H287.808V89.18H289.228V91.48H292.428V92.68H289.228V98.96C289.228 100.2 289.868 100.88 291.048 100.88C291.628 100.88 292.208 100.7 292.608 100.34ZM299.622 102.1C296.542 102.1 294.262 99.86 294.262 96.74C294.262 93.62 296.542 91.4 299.622 91.4C302.702 91.4 304.962 93.62 304.962 96.74C304.962 99.86 302.702 102.1 299.622 102.1ZM299.622 100.84C301.862 100.84 303.522 99.2 303.522 96.74C303.522 94.28 301.862 92.64 299.622 92.64C297.382 92.64 295.702 94.28 295.702 96.74C295.702 99.2 297.382 100.84 299.622 100.84ZM313.281 91.4C316.281 91.4 318.521 93.56 318.521 96.74C318.521 99.94 316.281 102.1 313.281 102.1C311.601 102.1 310.161 101.38 309.281 100.02V105.88H307.861V91.48H309.221V93.56C310.081 92.16 311.541 91.4 313.281 91.4ZM313.181 100.84C315.401 100.84 317.101 99.2 317.101 96.74C317.101 94.3 315.401 92.64 313.181 92.64C310.941 92.64 309.261 94.3 309.261 96.74C309.261 99.2 310.941 100.84 313.181 100.84ZM320.831 97.2V95.96H326.071V97.2H320.831ZM76.218 115.48H77.578V129.88H76.158V124.02C75.278 125.38 73.838 126.1 72.158 126.1C69.158 126.1 66.918 123.94 66.918 120.74C66.918 117.56 69.158 115.4 72.158 115.4C73.898 115.4 75.358 116.16 76.218 117.56V115.48ZM72.278 124.84C74.498 124.84 76.178 123.2 76.178 120.74C76.178 118.3 74.498 116.64 72.278 116.64C70.038 116.64 68.358 118.3 68.358 120.74C68.358 123.2 70.038 124.84 72.278 124.84ZM89.5927 115.48H91.0127V126H89.6527V124.08C88.9127 125.36 87.5527 126.1 85.8727 126.1C83.1927 126.1 81.4327 124.6 81.4327 121.58V115.48H82.8527V121.44C82.8527 123.68 84.0127 124.82 86.0127 124.82C88.2127 124.82 89.5927 123.4 89.5927 121V115.48ZM98.6698 115.4C101.39 115.4 102.93 116.76 102.93 119.48V126H101.57V124.36C100.93 125.44 99.6898 126.1 97.9498 126.1C95.5698 126.1 94.1098 124.86 94.1098 123.04C94.1098 121.42 95.1498 120.06 98.1698 120.06H101.51V119.42C101.51 117.62 100.49 116.64 98.5298 116.64C97.1698 116.64 95.8898 117.12 95.0298 117.88L94.3898 116.82C95.4498 115.92 97.0098 115.4 98.6698 115.4ZM98.1698 124.98C99.7698 124.98 100.95 124.22 101.51 122.84V121.12H98.2098C96.1698 121.12 95.5098 121.92 95.5098 123C95.5098 124.22 96.4898 124.98 98.1698 124.98ZM106.787 126V111.16H108.207V126H106.787ZM112.878 113.18C112.298 113.18 111.838 112.72 111.838 112.16C111.838 111.62 112.298 111.16 112.878 111.16C113.458 111.16 113.918 111.6 113.918 112.14C113.918 112.72 113.478 113.18 112.878 113.18ZM112.158 126V115.48H113.578V126H112.158ZM122.569 124.34L123.069 125.36C122.509 125.86 121.669 126.1 120.849 126.1C118.869 126.1 117.769 124.98 117.769 123.04V116.68H115.889V115.48H117.769V113.18H119.189V115.48H122.389V116.68H119.189V122.96C119.189 124.2 119.829 124.88 121.009 124.88C121.589 124.88 122.169 124.7 122.569 124.34ZM132.899 115.48H134.299L129.039 127.26C128.159 129.32 127.039 129.98 125.539 129.98C124.559 129.98 123.619 129.66 122.979 129.02L123.639 127.96C124.159 128.48 124.799 128.76 125.559 128.76C126.499 128.76 127.139 128.32 127.739 127L128.199 125.98L123.499 115.48H124.979L128.939 124.42L132.899 115.48ZM149.713 111.16H151.133V126H149.773V123.92C148.913 125.34 147.453 126.1 145.713 126.1C142.713 126.1 140.473 123.92 140.473 120.74C140.473 117.56 142.713 115.4 145.713 115.4C147.393 115.4 148.833 116.12 149.713 117.48V111.16ZM145.833 124.84C148.053 124.84 149.733 123.2 149.733 120.74C149.733 118.28 148.053 116.64 145.833 116.64C143.593 116.64 141.913 118.28 141.913 120.74C141.913 123.2 143.593 124.84 145.833 124.84ZM164.267 120.74C164.267 120.86 164.247 121.02 164.247 121.18H155.447C155.607 123.38 157.287 124.84 159.587 124.84C160.867 124.84 162.007 124.38 162.807 123.46L163.607 124.38C162.667 125.5 161.207 126.1 159.547 126.1C156.267 126.1 154.027 123.86 154.027 120.74C154.027 117.62 156.207 115.4 159.167 115.4C162.127 115.4 164.267 117.58 164.267 120.74ZM159.167 116.62C157.127 116.62 155.627 118.06 155.447 120.12H162.907C162.727 118.06 161.227 116.62 159.167 116.62ZM169.978 126.1C168.238 126.1 166.558 125.54 165.698 124.8L166.338 123.68C167.178 124.34 168.598 124.86 170.078 124.86C172.078 124.86 172.898 124.18 172.898 123.14C172.898 120.4 166.078 122.56 166.078 118.4C166.078 116.68 167.558 115.4 170.238 115.4C171.598 115.4 173.078 115.78 173.958 116.38L173.338 117.52C172.418 116.88 171.318 116.62 170.238 116.62C168.338 116.62 167.498 117.36 167.498 118.36C167.498 121.2 174.318 119.06 174.318 123.1C174.318 124.92 172.718 126.1 169.978 126.1ZM177.663 113.18C177.083 113.18 176.623 112.72 176.623 112.16C176.623 111.62 177.083 111.16 177.663 111.16C178.243 111.16 178.703 111.6 178.703 112.14C178.703 112.72 178.263 113.18 177.663 113.18ZM176.943 126V115.48H178.363V126H176.943ZM190.694 115.48H192.054V124.72C192.054 128.34 190.274 129.98 186.794 129.98C184.874 129.98 182.994 129.4 181.894 128.36L182.614 127.28C183.614 128.18 185.134 128.72 186.754 128.72C189.414 128.72 190.634 127.5 190.634 124.9V123.56C189.754 124.9 188.254 125.6 186.534 125.6C183.534 125.6 181.254 123.5 181.254 120.48C181.254 117.46 183.534 115.4 186.534 115.4C188.294 115.4 189.814 116.12 190.694 117.5V115.48ZM186.674 124.34C188.994 124.34 190.674 122.76 190.674 120.48C190.674 118.2 188.994 116.64 186.674 116.64C184.354 116.64 182.694 118.2 182.694 120.48C182.694 122.76 184.354 124.34 186.674 124.34ZM201.385 115.4C203.945 115.4 205.705 116.88 205.705 119.9V126H204.285V120.04C204.285 117.82 203.125 116.68 201.125 116.68C198.865 116.68 197.445 118.08 197.445 120.48V126H196.025V115.48H197.385V117.42C198.145 116.14 199.565 115.4 201.385 115.4ZM212.38 126.1C210.64 126.1 208.96 125.54 208.1 124.8L208.74 123.68C209.58 124.34 211 124.86 212.48 124.86C214.48 124.86 215.3 124.18 215.3 123.14C215.3 120.4 208.48 122.56 208.48 118.4C208.48 116.68 209.96 115.4 212.64 115.4C214 115.4 215.48 115.78 216.36 116.38L215.74 117.52C214.82 116.88 213.72 116.62 212.64 116.62C210.74 116.62 209.9 117.36 209.9 118.36C209.9 121.2 216.72 119.06 216.72 123.1C216.72 124.92 215.12 126.1 212.38 126.1ZM228.26 115.4C230.98 115.4 232.52 116.76 232.52 119.48V126H231.16V124.36C230.52 125.44 229.28 126.1 227.54 126.1C225.16 126.1 223.7 124.86 223.7 123.04C223.7 121.42 224.74 120.06 227.76 120.06H231.1V119.42C231.1 117.62 230.08 116.64 228.12 116.64C226.76 116.64 225.48 117.12 224.62 117.88L223.98 116.82C225.04 115.92 226.6 115.4 228.26 115.4ZM227.76 124.98C229.36 124.98 230.54 124.22 231.1 122.84V121.12H227.8C225.76 121.12 225.1 121.92 225.1 123C225.1 124.22 226.08 124.98 227.76 124.98ZM241.736 115.4C244.296 115.4 246.056 116.88 246.056 119.9V126H244.636V120.04C244.636 117.82 243.476 116.68 241.476 116.68C239.216 116.68 237.796 118.08 237.796 120.48V126H236.376V115.48H237.736V117.42C238.496 116.14 239.916 115.4 241.736 115.4ZM258.131 111.16H259.551V126H258.191V123.92C257.331 125.34 255.871 126.1 254.131 126.1C251.131 126.1 248.891 123.92 248.891 120.74C248.891 117.56 251.131 115.4 254.131 115.4C255.811 115.4 257.251 116.12 258.131 117.48V111.16ZM254.251 124.84C256.471 124.84 258.151 123.2 258.151 120.74C258.151 118.28 256.471 116.64 254.251 116.64C252.011 116.64 250.331 118.28 250.331 120.74C250.331 123.2 252.011 124.84 254.251 124.84ZM274.16 115.4C277.16 115.4 279.4 117.56 279.4 120.74C279.4 123.94 277.16 126.1 274.16 126.1C272.48 126.1 271.04 125.38 270.16 124.02V129.88H268.74V115.48H270.1V117.56C270.96 116.16 272.42 115.4 274.16 115.4ZM274.06 124.84C276.28 124.84 277.98 123.2 277.98 120.74C277.98 118.3 276.28 116.64 274.06 116.64C271.82 116.64 270.14 118.3 270.14 120.74C270.14 123.2 271.82 124.84 274.06 124.84ZM283.654 117.54C284.314 116.14 285.654 115.4 287.594 115.4V116.78C287.474 116.78 287.354 116.76 287.254 116.76C285.054 116.76 283.714 118.16 283.714 120.64V126H282.294V115.48H283.654V117.54ZM290.886 113.18C290.306 113.18 289.846 112.72 289.846 112.16C289.846 111.62 290.306 111.16 290.886 111.16C291.466 111.16 291.926 111.6 291.926 112.14C291.926 112.72 291.486 113.18 290.886 113.18ZM290.166 126V115.48H291.586V126H290.166ZM300.897 115.4C303.457 115.4 305.217 116.88 305.217 119.9V126H303.797V120.04C303.797 117.82 302.637 116.68 300.637 116.68C298.377 116.68 296.957 118.08 296.957 120.48V126H295.537V115.48H296.897V117.42C297.657 116.14 299.077 115.4 300.897 115.4ZM314.112 124.34L314.612 125.36C314.052 125.86 313.212 126.1 312.392 126.1C310.412 126.1 309.312 124.98 309.312 123.04V116.68H307.432V115.48H309.312V113.18H310.732V115.48H313.932V116.68H310.732V122.96C310.732 124.2 311.372 124.88 312.552 124.88C313.132 124.88 313.712 124.7 314.112 124.34ZM320.017 126.1C318.277 126.1 316.597 125.54 315.737 124.8L316.377 123.68C317.217 124.34 318.637 124.86 320.117 124.86C322.117 124.86 322.937 124.18 322.937 123.14C322.937 120.4 316.117 122.56 316.117 118.4C316.117 116.68 317.597 115.4 320.277 115.4C321.637 115.4 323.117 115.78 323.997 116.38L323.377 117.52C322.457 116.88 321.357 116.62 320.277 116.62C318.377 116.62 317.537 117.36 317.537 118.36C317.537 121.2 324.357 119.06 324.357 123.1C324.357 124.92 322.757 126.1 320.017 126.1ZM69.5116 144.74C69.5116 144.86 69.4916 145.02 69.4916 145.18H60.6916C60.8516 147.38 62.5316 148.84 64.8316 148.84C66.1116 148.84 67.2516 148.38 68.0516 147.46L68.8516 148.38C67.9116 149.5 66.4516 150.1 64.7916 150.1C61.5116 150.1 59.2716 147.86 59.2716 144.74C59.2716 141.62 61.4516 139.4 64.4116 139.4C67.3716 139.4 69.5116 141.58 69.5116 144.74ZM64.4116 140.62C62.3716 140.62 60.8716 142.06 60.6916 144.12H68.1516C67.9716 142.06 66.4716 140.62 64.4116 140.62ZM79.6466 139.48H81.0466L76.3666 150H74.9066L70.2466 139.48H71.7266L75.6666 148.44L79.6466 139.48ZM91.9334 144.74C91.9334 144.86 91.9134 145.02 91.9134 145.18H83.1134C83.2734 147.38 84.9534 148.84 87.2534 148.84C88.5334 148.84 89.6734 148.38 90.4734 147.46L91.2734 148.38C90.3334 149.5 88.8734 150.1 87.2134 150.1C83.9334 150.1 81.6934 147.86 81.6934 144.74C81.6934 141.62 83.8734 139.4 86.8334 139.4C89.7934 139.4 91.9334 141.58 91.9334 144.74ZM86.8334 140.62C84.7934 140.62 83.2934 142.06 83.1134 144.12H90.5734C90.3934 142.06 88.8934 140.62 86.8334 140.62ZM96.1838 141.54C96.8438 140.14 98.1838 139.4 100.124 139.4V140.78C100.004 140.78 99.8838 140.76 99.7838 140.76C97.5838 140.76 96.2438 142.16 96.2438 144.64V150H94.8238V139.48H96.1838V141.54ZM110.584 139.48H111.984L106.724 151.26C105.844 153.32 104.724 153.98 103.224 153.98C102.244 153.98 101.304 153.66 100.664 153.02L101.324 151.96C101.844 152.48 102.484 152.76 103.244 152.76C104.184 152.76 104.824 152.32 105.424 151L105.884 149.98L101.184 139.48H102.664L106.624 148.42L110.584 139.48ZM124.258 148.34L124.758 149.36C124.198 149.86 123.358 150.1 122.538 150.1C120.558 150.1 119.458 148.98 119.458 147.04V140.68H117.578V139.48H119.458V137.18H120.878V139.48H124.078V140.68H120.878V146.96C120.878 148.2 121.518 148.88 122.698 148.88C123.278 148.88 123.858 148.7 124.258 148.34ZM128.063 137.18C127.483 137.18 127.023 136.72 127.023 136.16C127.023 135.62 127.483 135.16 128.063 135.16C128.643 135.16 129.103 135.6 129.103 136.14C129.103 136.72 128.663 137.18 128.063 137.18ZM127.343 150V139.48H128.763V150H127.343ZM145.834 139.4C148.394 139.4 150.074 140.88 150.074 143.9V150H148.654V144.04C148.654 141.82 147.534 140.68 145.634 140.68C143.474 140.68 142.114 142.08 142.114 144.48V150H140.694V144.04C140.694 141.82 139.574 140.68 137.654 140.68C135.514 140.68 134.134 142.08 134.134 144.48V150H132.714V139.48H134.074V141.4C134.814 140.14 136.174 139.4 137.934 139.4C139.674 139.4 141.034 140.14 141.674 141.62C142.434 140.26 143.934 139.4 145.834 139.4ZM163.144 144.74C163.144 144.86 163.124 145.02 163.124 145.18H154.324C154.484 147.38 156.164 148.84 158.464 148.84C159.744 148.84 160.884 148.38 161.684 147.46L162.484 148.38C161.544 149.5 160.084 150.1 158.424 150.1C155.144 150.1 152.904 147.86 152.904 144.74C152.904 141.62 155.084 139.4 158.044 139.4C161.004 139.4 163.144 141.58 163.144 144.74ZM158.044 140.62C156.004 140.62 154.504 142.06 154.324 144.12H161.784C161.604 142.06 160.104 140.62 158.044 140.62ZM169.289 145.08V144.06H179.289V145.08H169.289ZM190.863 150.1C187.723 150.1 185.443 147.88 185.443 144.74C185.443 141.6 187.723 139.4 190.863 139.4C192.643 139.4 194.143 140.1 194.983 141.48L193.923 142.2C193.203 141.14 192.083 140.64 190.863 140.64C188.563 140.64 186.883 142.28 186.883 144.74C186.883 147.22 188.563 148.84 190.863 148.84C192.083 148.84 193.203 148.36 193.923 147.3L194.983 148.02C194.143 149.38 192.643 150.1 190.863 150.1ZM197.617 150V135.16H199.037V150H197.617ZM212.168 144.74C212.168 144.86 212.148 145.02 212.148 145.18H203.348C203.508 147.38 205.188 148.84 207.488 148.84C208.768 148.84 209.908 148.38 210.708 147.46L211.508 148.38C210.568 149.5 209.108 150.1 207.448 150.1C204.168 150.1 201.928 147.86 201.928 144.74C201.928 141.62 204.108 139.4 207.068 139.4C210.028 139.4 212.168 141.58 212.168 144.74ZM207.068 140.62C205.028 140.62 203.528 142.06 203.348 144.12H210.808C210.628 142.06 209.128 140.62 207.068 140.62ZM218.445 139.4C221.165 139.4 222.705 140.76 222.705 143.48V150H221.345V148.36C220.705 149.44 219.465 150.1 217.725 150.1C215.345 150.1 213.885 148.86 213.885 147.04C213.885 145.42 214.925 144.06 217.945 144.06H221.285V143.42C221.285 141.62 220.265 140.64 218.305 140.64C216.945 140.64 215.665 141.12 214.805 141.88L214.165 140.82C215.225 139.92 216.785 139.4 218.445 139.4ZM217.945 148.98C219.545 148.98 220.725 148.22 221.285 146.84V145.12H217.985C215.945 145.12 215.285 145.92 215.285 147C215.285 148.22 216.265 148.98 217.945 148.98ZM231.922 139.4C234.482 139.4 236.242 140.88 236.242 143.9V150H234.822V144.04C234.822 141.82 233.662 140.68 231.662 140.68C229.402 140.68 227.982 142.08 227.982 144.48V150H226.562V139.48H227.922V141.42C228.682 140.14 230.102 139.4 231.922 139.4ZM240.257 147.92C240.877 147.92 241.317 148.4 241.317 149C241.317 149.34 241.237 149.6 241.037 150.16L240.197 152.92H239.237L239.917 150.02C239.497 149.9 239.197 149.52 239.197 149C239.197 148.38 239.657 147.92 240.257 147.92ZM262.69 139.4C265.25 139.4 266.93 140.88 266.93 143.9V150H265.51V144.04C265.51 141.82 264.39 140.68 262.49 140.68C260.33 140.68 258.97 142.08 258.97 144.48V150H257.55V144.04C257.55 141.82 256.43 140.68 254.51 140.68C252.37 140.68 250.99 142.08 250.99 144.48V150H249.57V139.48H250.93V141.4C251.67 140.14 253.03 139.4 254.79 139.4C256.53 139.4 257.89 140.14 258.53 141.62C259.29 140.26 260.79 139.4 262.69 139.4ZM275.12 150.1C272.04 150.1 269.76 147.86 269.76 144.74C269.76 141.62 272.04 139.4 275.12 139.4C278.2 139.4 280.46 141.62 280.46 144.74C280.46 147.86 278.2 150.1 275.12 150.1ZM275.12 148.84C277.36 148.84 279.02 147.2 279.02 144.74C279.02 142.28 277.36 140.64 275.12 140.64C272.88 140.64 271.2 142.28 271.2 144.74C271.2 147.2 272.88 148.84 275.12 148.84ZM291.539 135.16H292.959V150H291.599V147.92C290.739 149.34 289.279 150.1 287.539 150.1C284.539 150.1 282.299 147.92 282.299 144.74C282.299 141.56 284.539 139.4 287.539 139.4C289.219 139.4 290.659 140.12 291.539 141.48V135.16ZM287.659 148.84C289.879 148.84 291.559 147.2 291.559 144.74C291.559 142.28 289.879 140.64 287.659 140.64C285.419 140.64 283.739 142.28 283.739 144.74C283.739 147.2 285.419 148.84 287.659 148.84ZM306.094 144.74C306.094 144.86 306.074 145.02 306.074 145.18H297.274C297.434 147.38 299.114 148.84 301.414 148.84C302.694 148.84 303.834 148.38 304.634 147.46L305.434 148.38C304.494 149.5 303.034 150.1 301.374 150.1C298.094 150.1 295.854 147.86 295.854 144.74C295.854 141.62 298.034 139.4 300.994 139.4C303.954 139.4 306.094 141.58 306.094 144.74ZM300.994 140.62C298.954 140.62 297.454 142.06 297.274 144.12H304.734C304.554 142.06 303.054 140.62 300.994 140.62ZM310.344 141.54C311.004 140.14 312.344 139.4 314.284 139.4V140.78C314.164 140.78 314.044 140.76 313.944 140.76C311.744 140.76 310.404 142.16 310.404 144.64V150H308.984V139.48H310.344V141.54ZM322.215 139.4C324.775 139.4 326.535 140.88 326.535 143.9V150H325.115V144.04C325.115 141.82 323.955 140.68 321.955 140.68C319.695 140.68 318.275 142.08 318.275 144.48V150H316.855V139.48H318.215V141.42C318.975 140.14 320.395 139.4 322.215 139.4ZM330.55 147.92C331.17 147.92 331.61 148.4 331.61 149C331.61 149.34 331.53 149.6 331.33 150.16L330.49 152.92H329.53L330.21 150.02C329.79 149.9 329.49 149.52 329.49 149C329.49 148.38 329.95 147.92 330.55 147.92ZM67.8885 163.4C70.6085 163.4 72.1485 164.76 72.1485 167.48V174H70.7885V172.36C70.1485 173.44 68.9085 174.1 67.1685 174.1C64.7885 174.1 63.3285 172.86 63.3285 171.04C63.3285 169.42 64.3685 168.06 67.3885 168.06H70.7285V167.42C70.7285 165.62 69.7085 164.64 67.7485 164.64C66.3885 164.64 65.1085 165.12 64.2485 165.88L63.6085 164.82C64.6685 163.92 66.2285 163.4 67.8885 163.4ZM67.3885 172.98C68.9885 172.98 70.1685 172.22 70.7285 170.84V169.12H67.4285C65.3885 169.12 64.7285 169.92 64.7285 171C64.7285 172.22 65.7085 172.98 67.3885 172.98ZM81.3654 163.4C83.9254 163.4 85.6854 164.88 85.6854 167.9V174H84.2654V168.04C84.2654 165.82 83.1054 164.68 81.1054 164.68C78.8454 164.68 77.4254 166.08 77.4254 168.48V174H76.0054V163.48H77.3654V165.42C78.1254 164.14 79.5454 163.4 81.3654 163.4ZM97.7596 159.16H99.1796V174H97.8196V171.92C96.9596 173.34 95.4996 174.1 93.7596 174.1C90.7596 174.1 88.5196 171.92 88.5196 168.74C88.5196 165.56 90.7596 163.4 93.7596 163.4C95.4396 163.4 96.8796 164.12 97.7596 165.48V159.16ZM93.8796 172.84C96.0996 172.84 97.7796 171.2 97.7796 168.74C97.7796 166.28 96.0996 164.64 93.8796 164.64C91.6396 164.64 89.9596 166.28 89.9596 168.74C89.9596 171.2 91.6396 172.84 93.8796 172.84ZM117.549 168.74C117.549 168.86 117.529 169.02 117.529 169.18H108.729C108.889 171.38 110.569 172.84 112.869 172.84C114.149 172.84 115.289 172.38 116.089 171.46L116.889 172.38C115.949 173.5 114.489 174.1 112.829 174.1C109.549 174.1 107.309 171.86 107.309 168.74C107.309 165.62 109.489 163.4 112.449 163.4C115.409 163.4 117.549 165.58 117.549 168.74ZM112.449 164.62C110.409 164.62 108.909 166.06 108.729 168.12H116.189C116.009 166.06 114.509 164.62 112.449 164.62ZM128.466 174H126.846L123.506 169.6L120.146 174H118.546L122.706 168.6L118.746 163.48H120.346L123.506 167.6L126.666 163.48H128.226L124.266 168.6L128.466 174ZM134.314 163.4C137.034 163.4 138.574 164.76 138.574 167.48V174H137.214V172.36C136.574 173.44 135.334 174.1 133.594 174.1C131.214 174.1 129.754 172.86 129.754 171.04C129.754 169.42 130.794 168.06 133.814 168.06H137.154V167.42C137.154 165.62 136.134 164.64 134.174 164.64C132.814 164.64 131.534 165.12 130.674 165.88L130.034 164.82C131.094 163.92 132.654 163.4 134.314 163.4ZM133.814 172.98C135.414 172.98 136.594 172.22 137.154 170.84V169.12H133.854C131.814 169.12 131.154 169.92 131.154 171C131.154 172.22 132.134 172.98 133.814 172.98ZM146.83 174.1C143.69 174.1 141.41 171.88 141.41 168.74C141.41 165.6 143.69 163.4 146.83 163.4C148.61 163.4 150.11 164.1 150.95 165.48L149.89 166.2C149.17 165.14 148.05 164.64 146.83 164.64C144.53 164.64 142.85 166.28 142.85 168.74C142.85 171.22 144.53 172.84 146.83 172.84C148.05 172.84 149.17 172.36 149.89 171.3L150.95 172.02C150.11 173.38 148.61 174.1 146.83 174.1ZM158.897 172.34L159.397 173.36C158.837 173.86 157.997 174.1 157.177 174.1C155.197 174.1 154.097 172.98 154.097 171.04V164.68H152.217V163.48H154.097V161.18H155.517V163.48H158.717V164.68H155.517V170.96C155.517 172.2 156.157 172.88 157.337 172.88C157.917 172.88 158.497 172.7 158.897 172.34ZM161.982 174V159.16H163.402V174H161.982ZM174.793 163.48H176.193L170.933 175.26C170.053 177.32 168.933 177.98 167.433 177.98C166.453 177.98 165.513 177.66 164.873 177.02L165.533 175.96C166.053 176.48 166.693 176.76 167.453 176.76C168.393 176.76 169.033 176.32 169.633 175L170.093 173.98L165.393 163.48H166.873L170.833 172.42L174.793 163.48ZM197.567 163.48H198.867L194.887 174H193.547L190.227 165.38L186.907 174H185.567L181.607 163.48H182.967L186.267 172.42L189.647 163.48H190.867L194.227 172.42L197.567 163.48ZM206.365 163.4C208.925 163.4 210.685 164.88 210.685 167.9V174H209.265V168.04C209.265 165.82 208.105 164.68 206.105 164.68C203.845 164.68 202.425 166.08 202.425 168.48V174H201.005V159.16H202.425V165.32C203.205 164.1 204.585 163.4 206.365 163.4ZM218.221 163.4C220.941 163.4 222.481 164.76 222.481 167.48V174H221.121V172.36C220.481 173.44 219.241 174.1 217.501 174.1C215.121 174.1 213.661 172.86 213.661 171.04C213.661 169.42 214.701 168.06 217.721 168.06H221.061V167.42C221.061 165.62 220.041 164.64 218.081 164.64C216.721 164.64 215.441 165.12 214.581 165.88L213.941 164.82C215.001 163.92 216.561 163.4 218.221 163.4ZM217.721 172.98C219.321 172.98 220.501 172.22 221.061 170.84V169.12H217.761C215.721 169.12 215.061 169.92 215.061 171C215.061 172.22 216.041 172.98 217.721 172.98ZM231.377 172.34L231.877 173.36C231.317 173.86 230.477 174.1 229.657 174.1C227.677 174.1 226.577 172.98 226.577 171.04V164.68H224.697V163.48H226.577V161.18H227.997V163.48H231.197V164.68H227.997V170.96C227.997 172.2 228.637 172.88 229.817 172.88C230.397 172.88 230.977 172.7 231.377 172.34ZM253.837 163.48H255.137L251.157 174H249.817L246.497 165.38L243.177 174H241.837L237.877 163.48H239.237L242.537 172.42L245.917 163.48H247.137L250.497 172.42L253.837 163.48ZM266.162 168.74C266.162 168.86 266.142 169.02 266.142 169.18H257.342C257.502 171.38 259.182 172.84 261.482 172.84C262.762 172.84 263.902 172.38 264.702 171.46L265.502 172.38C264.562 173.5 263.102 174.1 261.442 174.1C258.162 174.1 255.922 171.86 255.922 168.74C255.922 165.62 258.102 163.4 261.062 163.4C264.022 163.4 266.162 165.58 266.162 168.74ZM261.062 164.62C259.022 164.62 257.522 166.06 257.342 168.12H264.802C264.622 166.06 263.122 164.62 261.062 164.62ZM279.647 163.4C282.207 163.4 283.967 164.88 283.967 167.9V174H282.547V168.04C282.547 165.82 281.387 164.68 279.387 164.68C277.127 164.68 275.707 166.08 275.707 168.48V174H274.287V163.48H275.647V165.42C276.407 164.14 277.827 163.4 279.647 163.4ZM297.041 168.74C297.041 168.86 297.021 169.02 297.021 169.18H288.221C288.381 171.38 290.061 172.84 292.361 172.84C293.641 172.84 294.781 172.38 295.581 171.46L296.381 172.38C295.441 173.5 293.981 174.1 292.321 174.1C289.041 174.1 286.801 171.86 286.801 168.74C286.801 165.62 288.981 163.4 291.941 163.4C294.901 163.4 297.041 165.58 297.041 168.74ZM291.941 164.62C289.901 164.62 288.401 166.06 288.221 168.12H295.681C295.501 166.06 294.001 164.62 291.941 164.62ZM309.111 168.74C309.111 168.86 309.091 169.02 309.091 169.18H300.291C300.451 171.38 302.131 172.84 304.431 172.84C305.711 172.84 306.851 172.38 307.651 171.46L308.451 172.38C307.511 173.5 306.051 174.1 304.391 174.1C301.111 174.1 298.871 171.86 298.871 168.74C298.871 165.62 301.051 163.4 304.011 163.4C306.971 163.4 309.111 165.58 309.111 168.74ZM304.011 164.62C301.971 164.62 300.471 166.06 300.291 168.12H307.751C307.571 166.06 306.071 164.62 304.011 164.62ZM320.181 159.16H321.601V174H320.241V171.92C319.381 173.34 317.921 174.1 316.181 174.1C313.181 174.1 310.941 171.92 310.941 168.74C310.941 165.56 313.181 163.4 316.181 163.4C317.861 163.4 319.301 164.12 320.181 165.48V159.16ZM316.301 172.84C318.521 172.84 320.201 171.2 320.201 168.74C320.201 166.28 318.521 164.64 316.301 164.64C314.061 164.64 312.381 166.28 312.381 168.74C312.381 171.2 314.061 172.84 316.301 172.84ZM325.616 169.8L325.336 160H327.016L326.716 169.8H325.616ZM326.176 174.1C325.576 174.1 325.116 173.62 325.116 173.06C325.116 172.48 325.576 172.04 326.176 172.04C326.776 172.04 327.216 172.48 327.216 173.06C327.216 173.62 326.776 174.1 326.176 174.1Z" fill="white"/>
<path d="M-13.7607 -0.75001L-9.51074 8.74999C-15.3441 12.5833 -19.5941 17.6667 -22.2607 24C-24.9274 30.3333 -25.4274 38.4167 -23.7607 48.25L-35.0107 39.25C-29.6774 36.5833 -24.8441 35.75 -20.5107 36.75C-16.0107 37.75 -12.5107 40 -10.0107 43.5C-7.34407 46.8333 -6.01074 51 -6.01074 56C-6.01074 61.6667 -7.84407 66.75 -11.5107 71.25C-15.1774 75.5833 -19.8441 77.75 -25.5107 77.75C-32.3441 77.75 -37.4274 75 -40.7607 69.5C-43.9274 64 -45.5107 57.6667 -45.5107 50.5C-45.5107 43.6667 -44.4274 36.8333 -42.2607 30C-40.0941 23 -36.6774 16.75 -32.0107 11.25C-27.3441 5.74999 -21.2607 1.74999 -13.7607 -0.75001ZM37.2393 -0.500013L41.4893 9C35.6559 12.8333 31.4059 17.9167 28.7393 24.25C26.0726 30.5833 25.5726 38.6667 27.2393 48.5L15.9893 39.5C21.3226 36.8333 26.1559 36 30.4893 37C34.9893 38 38.4893 40.25 40.9893 43.75C43.6559 47.0833 44.9893 51.25 44.9893 56.25C44.9893 61.9167 43.1559 67 39.4893 71.5C35.8226 75.8333 31.1559 78 25.4893 78C18.6559 78 13.5726 75.25 10.2393 69.75C7.07259 64.25 5.48926 57.9167 5.48926 50.75C5.48926 43.9167 6.5726 37.0833 8.73926 30.25C10.9059 23.25 14.3226 17 18.9893 11.5C23.6559 6 29.7393 1.99999 37.2393 -0.500013Z" fill="white"/>
<path d="M354.245 255L349.995 245.5C355.828 241.5 360.078 236.333 362.745 230C365.412 223.667 365.912 215.667 364.245 206L375.495 215C370.162 217.5 365.245 218.333 360.745 217.5C356.412 216.5 352.912 214.333 350.245 211C347.745 207.5 346.495 203.25 346.495 198.25C346.495 192.583 348.328 187.583 351.995 183.25C355.662 178.75 360.328 176.5 365.995 176.5C372.995 176.5 378.078 179.25 381.245 184.75C384.412 190.25 385.995 196.583 385.995 203.75C385.995 210.583 384.912 217.5 382.745 224.5C380.578 231.333 377.162 237.5 372.495 243C367.995 248.5 361.912 252.5 354.245 255ZM405.245 255L400.995 245.5C406.828 241.5 411.078 236.333 413.745 230C416.412 223.667 416.912 215.667 415.245 206L426.495 215C421.162 217.5 416.245 218.333 411.745 217.5C407.412 216.5 403.912 214.333 401.245 211C398.745 207.5 397.495 203.25 397.495 198.25C397.495 192.583 399.328 187.583 402.995 183.25C406.662 178.75 411.328 176.5 416.995 176.5C423.995 176.5 429.078 179.25 432.245 184.75C435.412 190.25 436.995 196.583 436.995 203.75C436.995 210.583 435.912 217.5 433.745 224.5C431.578 231.333 428.162 237.5 423.495 243C418.995 248.5 412.912 252.5 405.245 255Z" fill="white"/>
</g>
<rect x="0.5" y="0.5" width="391" height="299" stroke="url(#paint0_linear_170_59)"/>
<defs>
<linearGradient id="paint0_linear_170_59" x1="196" y1="0" x2="196" y2="300" gradientUnits="userSpaceOnUse">
<stop stop-color="white"/>
<stop offset="0.5" stop-color="#800000"/>
<stop offset="1" stop-color="white"/>
</linearGradient>
<clipPath id="clip0_170_59">
<rect width="392" height="300" fill="white"/>
</clipPath>
</defs>
</svg>
