<svg width="392" height="300" viewBox="0 0 392 300" fill="none" xmlns="http://www.w3.org/2000/svg">
<g clip-path="url(#clip0_170_71)">
<mask id="path-3-inside-1_170_71" fill="white">
<path d="M0 260H392V300H0V260Z"/>
</mask>
<path d="M0 260V261H392V260V259H0V260Z" fill="white" mask="url(#path-3-inside-1_170_71)"/>
<path d="M122.215 274.8C125.207 274.8 127.079 276.352 127.079 278.864C127.079 281.36 125.207 282.912 122.215 282.912H119.959V286H117.367V274.8H122.215ZM122.071 280.8C123.655 280.8 124.455 280.08 124.455 278.864C124.455 277.632 123.655 276.912 122.071 276.912H119.959V280.8H122.071ZM138.85 286H136.066L133.906 282.88H133.778H131.522V286H128.93V274.8H133.778C136.77 274.8 138.642 276.352 138.642 278.864C138.642 280.544 137.794 281.776 136.338 282.4L138.85 286ZM136.018 278.864C136.018 277.632 135.218 276.912 133.634 276.912H131.522V280.816H133.634C135.218 280.816 136.018 280.08 136.018 278.864ZM149.063 286L148.071 283.6H142.871L141.879 286H139.223L144.215 274.8H146.775L151.783 286H149.063ZM143.703 281.632H147.255L145.479 277.344L143.703 281.632ZM156.625 286.192C154.849 286.192 153.057 285.664 152.065 284.896L152.945 282.944C153.889 283.632 155.297 284.112 156.641 284.112C158.177 284.112 158.801 283.6 158.801 282.912C158.801 280.816 152.289 282.256 152.289 278.096C152.289 276.192 153.825 274.608 157.009 274.608C158.417 274.608 159.857 274.944 160.897 275.6L160.097 277.568C159.057 276.976 157.985 276.688 156.993 276.688C155.457 276.688 154.865 277.264 154.865 277.968C154.865 280.032 161.377 278.608 161.377 282.72C161.377 284.592 159.825 286.192 156.625 286.192ZM171.516 286L170.524 283.6H165.324L164.332 286H161.676L166.668 274.8H169.228L174.236 286H171.516ZM166.156 281.632H169.708L167.932 277.344L166.156 281.632ZM183.11 274.8H185.67V286H183.542L177.958 279.2V286H175.398V274.8H177.542L183.11 281.6V274.8ZM196.032 274.8H198.592V286H196.464L190.88 279.2V286H188.32V274.8H190.464L196.032 281.6V274.8ZM209.61 286L208.618 283.6H203.418L202.426 286H199.77L204.762 274.8H207.322L212.33 286H209.61ZM204.25 281.632H207.802L206.026 277.344L204.25 281.632ZM227.943 286H225.159L222.999 282.88H222.871H220.615V286H218.023V274.8H222.871C225.863 274.8 227.735 276.352 227.735 278.864C227.735 280.544 226.887 281.776 225.431 282.4L227.943 286ZM225.111 278.864C225.111 277.632 224.311 276.912 222.727 276.912H220.615V280.816H222.727C224.311 280.816 225.111 280.08 225.111 278.864ZM232.365 283.92H238.461V286H229.789V274.8H238.253V276.88H232.365V279.312H237.565V281.328H232.365V283.92ZM240.523 286V274.8H245.611C249.275 274.8 251.787 277.008 251.787 280.4C251.787 283.792 249.275 286 245.611 286H240.523ZM243.115 283.872H245.483C247.707 283.872 249.163 282.544 249.163 280.4C249.163 278.256 247.707 276.928 245.483 276.928H243.115V283.872ZM253.742 286V274.8H258.83C262.494 274.8 265.006 277.008 265.006 280.4C265.006 283.792 262.494 286 258.83 286H253.742ZM256.334 283.872H258.702C260.926 283.872 262.382 282.544 262.382 280.4C262.382 278.256 260.926 276.928 258.702 276.928H256.334V283.872ZM276.204 274.8L271.852 282.032V286H269.26V282L264.924 274.8H267.676L270.668 279.776L273.66 274.8H276.204Z" fill="white"/>
<path d="M76.8677 88C80.4277 88 82.5877 89.8 82.5877 92.8C82.5877 95.78 80.4277 97.58 76.8677 97.58H73.1077V102H71.6277V88H76.8677ZM76.8277 96.28C79.6277 96.28 81.1077 95 81.1077 92.8C81.1077 90.56 79.6277 89.28 76.8277 89.28H73.1077V96.28H76.8277ZM86.5744 93.54C87.2344 92.14 88.5744 91.4 90.5144 91.4V92.78C90.3944 92.78 90.2744 92.76 90.1744 92.76C87.9744 92.76 86.6344 94.16 86.6344 96.64V102H85.2144V91.48H86.5744V93.54ZM97.2878 102.1C94.2078 102.1 91.9278 99.86 91.9278 96.74C91.9278 93.62 94.2078 91.4 97.2878 91.4C100.368 91.4 102.628 93.62 102.628 96.74C102.628 99.86 100.368 102.1 97.2878 102.1ZM97.2878 100.84C99.5278 100.84 101.188 99.2 101.188 96.74C101.188 94.28 99.5278 92.64 97.2878 92.64C95.0478 92.64 93.3678 94.28 93.3678 96.74C93.3678 99.2 95.0478 100.84 97.2878 100.84ZM109.007 88.26C107.787 88.26 107.147 88.94 107.147 90.24V91.48H110.387V92.68H107.187V102H105.767V92.68H103.887V91.48H105.767V90.18C105.767 88.3 106.887 87.06 108.947 87.06C109.727 87.06 110.527 87.28 111.047 87.72L110.567 88.78C110.167 88.44 109.607 88.26 109.007 88.26ZM121.308 96.74C121.308 96.86 121.288 97.02 121.288 97.18H112.488C112.648 99.38 114.328 100.84 116.628 100.84C117.908 100.84 119.048 100.38 119.848 99.46L120.648 100.38C119.708 101.5 118.248 102.1 116.588 102.1C113.308 102.1 111.068 99.86 111.068 96.74C111.068 93.62 113.248 91.4 116.208 91.4C119.168 91.4 121.308 93.58 121.308 96.74ZM116.208 92.62C114.168 92.62 112.668 94.06 112.488 96.12H119.948C119.768 94.06 118.268 92.62 116.208 92.62ZM127.019 102.1C125.279 102.1 123.599 101.54 122.739 100.8L123.379 99.68C124.219 100.34 125.639 100.86 127.119 100.86C129.119 100.86 129.939 100.18 129.939 99.14C129.939 96.4 123.119 98.56 123.119 94.4C123.119 92.68 124.599 91.4 127.279 91.4C128.639 91.4 130.119 91.78 130.999 92.38L130.379 93.52C129.459 92.88 128.359 92.62 127.279 92.62C125.379 92.62 124.539 93.36 124.539 94.36C124.539 97.2 131.359 95.06 131.359 99.1C131.359 100.92 129.759 102.1 127.019 102.1ZM136.804 102.1C135.064 102.1 133.384 101.54 132.524 100.8L133.164 99.68C134.004 100.34 135.424 100.86 136.904 100.86C138.904 100.86 139.724 100.18 139.724 99.14C139.724 96.4 132.904 98.56 132.904 94.4C132.904 92.68 134.384 91.4 137.064 91.4C138.424 91.4 139.904 91.78 140.784 92.38L140.164 93.52C139.244 92.88 138.144 92.62 137.064 92.62C135.164 92.62 134.324 93.36 134.324 94.36C134.324 97.2 141.144 95.06 141.144 99.1C141.144 100.92 139.544 102.1 136.804 102.1ZM144.489 89.18C143.909 89.18 143.449 88.72 143.449 88.16C143.449 87.62 143.909 87.16 144.489 87.16C145.069 87.16 145.529 87.6 145.529 88.14C145.529 88.72 145.089 89.18 144.489 89.18ZM143.769 102V91.48H145.189V102H143.769ZM153.44 102.1C150.36 102.1 148.08 99.86 148.08 96.74C148.08 93.62 150.36 91.4 153.44 91.4C156.52 91.4 158.78 93.62 158.78 96.74C158.78 99.86 156.52 102.1 153.44 102.1ZM153.44 100.84C155.68 100.84 157.34 99.2 157.34 96.74C157.34 94.28 155.68 92.64 153.44 92.64C151.2 92.64 149.52 94.28 149.52 96.74C149.52 99.2 151.2 100.84 153.44 100.84ZM167.039 91.4C169.599 91.4 171.359 92.88 171.359 95.9V102H169.939V96.04C169.939 93.82 168.779 92.68 166.779 92.68C164.519 92.68 163.099 94.08 163.099 96.48V102H161.679V91.48H163.039V93.42C163.799 92.14 165.219 91.4 167.039 91.4ZM178.894 91.4C181.614 91.4 183.154 92.76 183.154 95.48V102H181.794V100.36C181.154 101.44 179.914 102.1 178.174 102.1C175.794 102.1 174.334 100.86 174.334 99.04C174.334 97.42 175.374 96.06 178.394 96.06H181.734V95.42C181.734 93.62 180.714 92.64 178.754 92.64C177.394 92.64 176.114 93.12 175.254 93.88L174.614 92.82C175.674 91.92 177.234 91.4 178.894 91.4ZM178.394 100.98C179.994 100.98 181.174 100.22 181.734 98.84V97.12H178.434C176.394 97.12 175.734 97.92 175.734 99C175.734 100.22 176.714 100.98 178.394 100.98ZM187.011 102V87.16H188.431V102H187.011ZM192.542 99.92C193.162 99.92 193.602 100.4 193.602 101C193.602 101.34 193.522 101.6 193.322 102.16L192.482 104.92H191.522L192.202 102.02C191.782 101.9 191.482 101.52 191.482 101C191.482 100.38 191.942 99.92 192.542 99.92ZM203.215 93.54C203.875 92.14 205.215 91.4 207.155 91.4V92.78C207.035 92.78 206.915 92.76 206.815 92.76C204.615 92.76 203.275 94.16 203.275 96.64V102H201.855V91.48H203.215V93.54ZM218.808 96.74C218.808 96.86 218.788 97.02 218.788 97.18H209.988C210.148 99.38 211.828 100.84 214.128 100.84C215.408 100.84 216.548 100.38 217.348 99.46L218.148 100.38C217.208 101.5 215.748 102.1 214.088 102.1C210.808 102.1 208.568 99.86 208.568 96.74C208.568 93.62 210.748 91.4 213.708 91.4C216.668 91.4 218.808 93.58 218.808 96.74ZM213.708 92.62C211.668 92.62 210.168 94.06 209.988 96.12H217.448C217.268 94.06 215.768 92.62 213.708 92.62ZM221.699 102V87.16H223.119V102H221.699ZM227.79 89.18C227.21 89.18 226.75 88.72 226.75 88.16C226.75 87.62 227.21 87.16 227.79 87.16C228.37 87.16 228.83 87.6 228.83 88.14C228.83 88.72 228.39 89.18 227.79 89.18ZM227.07 102V91.48H228.49V102H227.07ZM236.121 91.4C238.841 91.4 240.381 92.76 240.381 95.48V102H239.021V100.36C238.381 101.44 237.141 102.1 235.401 102.1C233.021 102.1 231.561 100.86 231.561 99.04C231.561 97.42 232.601 96.06 235.621 96.06H238.961V95.42C238.961 93.62 237.941 92.64 235.981 92.64C234.621 92.64 233.341 93.12 232.481 93.88L231.841 92.82C232.901 91.92 234.461 91.4 236.121 91.4ZM235.621 100.98C237.221 100.98 238.401 100.22 238.961 98.84V97.12H235.661C233.621 97.12 232.961 97.92 232.961 99C232.961 100.22 233.941 100.98 235.621 100.98ZM249.658 91.4C252.658 91.4 254.898 93.56 254.898 96.74C254.898 99.92 252.658 102.1 249.658 102.1C247.918 102.1 246.458 101.34 245.598 99.92V102H244.238V87.16H245.658V93.48C246.538 92.12 247.978 91.4 249.658 91.4ZM249.558 100.84C251.778 100.84 253.478 99.2 253.478 96.74C253.478 94.28 251.778 92.64 249.558 92.64C247.318 92.64 245.638 94.28 245.638 96.74C245.638 99.2 247.318 100.84 249.558 100.84ZM257.793 102V87.16H259.213V102H257.793ZM272.344 96.74C272.344 96.86 272.324 97.02 272.324 97.18H263.524C263.684 99.38 265.364 100.84 267.664 100.84C268.944 100.84 270.084 100.38 270.884 99.46L271.684 100.38C270.744 101.5 269.284 102.1 267.624 102.1C264.344 102.1 262.104 99.86 262.104 96.74C262.104 93.62 264.284 91.4 267.244 91.4C270.204 91.4 272.344 93.58 272.344 96.74ZM267.244 92.62C265.204 92.62 263.704 94.06 263.524 96.12H270.984C270.804 94.06 269.304 92.62 267.244 92.62ZM275.394 99.92C276.014 99.92 276.454 100.4 276.454 101C276.454 101.34 276.374 101.6 276.174 102.16L275.334 104.92H274.374L275.054 102.02C274.634 101.9 274.334 101.52 274.334 101C274.334 100.38 274.794 99.92 275.394 99.92ZM288.387 91.4C291.107 91.4 292.647 92.76 292.647 95.48V102H291.287V100.36C290.647 101.44 289.407 102.1 287.667 102.1C285.287 102.1 283.827 100.86 283.827 99.04C283.827 97.42 284.867 96.06 287.887 96.06H291.227V95.42C291.227 93.62 290.207 92.64 288.247 92.64C286.887 92.64 285.607 93.12 284.747 93.88L284.107 92.82C285.167 91.92 286.727 91.4 288.387 91.4ZM287.887 100.98C289.487 100.98 290.667 100.22 291.227 98.84V97.12H287.927C285.887 97.12 285.227 97.92 285.227 99C285.227 100.22 286.207 100.98 287.887 100.98ZM301.863 91.4C304.423 91.4 306.183 92.88 306.183 95.9V102H304.763V96.04C304.763 93.82 303.603 92.68 301.603 92.68C299.343 92.68 297.923 94.08 297.923 96.48V102H296.503V91.48H297.863V93.42C298.623 92.14 300.043 91.4 301.863 91.4ZM318.258 87.16H319.678V102H318.318V99.92C317.458 101.34 315.998 102.1 314.258 102.1C311.258 102.1 309.018 99.92 309.018 96.74C309.018 93.56 311.258 91.4 314.258 91.4C315.938 91.4 317.378 92.12 318.258 93.48V87.16ZM314.378 100.84C316.598 100.84 318.278 99.2 318.278 96.74C318.278 94.28 316.598 92.64 314.378 92.64C312.138 92.64 310.458 94.28 310.458 96.74C310.458 99.2 312.138 100.84 314.378 100.84ZM52.2043 126.1C50.4643 126.1 48.7843 125.54 47.9243 124.8L48.5643 123.68C49.4043 124.34 50.8243 124.86 52.3043 124.86C54.3043 124.86 55.1243 124.18 55.1243 123.14C55.1243 120.4 48.3043 122.56 48.3043 118.4C48.3043 116.68 49.7843 115.4 52.4643 115.4C53.8243 115.4 55.3043 115.78 56.1843 116.38L55.5643 117.52C54.6443 116.88 53.5443 116.62 52.4643 116.62C50.5643 116.62 49.7243 117.36 49.7243 118.36C49.7243 121.2 56.5443 119.06 56.5443 123.1C56.5443 124.92 54.9443 126.1 52.2043 126.1ZM67.2295 115.48H68.6495V126H67.2895V124.08C66.5495 125.36 65.1895 126.1 63.5095 126.1C60.8295 126.1 59.0695 124.6 59.0695 121.58V115.48H60.4895V121.44C60.4895 123.68 61.6495 124.82 63.6495 124.82C65.8495 124.82 67.2295 123.4 67.2295 121V115.48ZM78.0465 115.4C81.0465 115.4 83.2865 117.56 83.2865 120.74C83.2865 123.94 81.0465 126.1 78.0465 126.1C76.3665 126.1 74.9265 125.38 74.0465 124.02V129.88H72.6265V115.48H73.9865V117.56C74.8465 116.16 76.3065 115.4 78.0465 115.4ZM77.9465 124.84C80.1665 124.84 81.8665 123.2 81.8665 120.74C81.8665 118.3 80.1665 116.64 77.9465 116.64C75.7065 116.64 74.0265 118.3 74.0265 120.74C74.0265 123.2 75.7065 124.84 77.9465 124.84ZM95.3612 120.74C95.3612 120.86 95.3412 121.02 95.3412 121.18H86.5412C86.7012 123.38 88.3812 124.84 90.6812 124.84C91.9612 124.84 93.1012 124.38 93.9012 123.46L94.7012 124.38C93.7612 125.5 92.3012 126.1 90.6412 126.1C87.3612 126.1 85.1212 123.86 85.1212 120.74C85.1212 117.62 87.3012 115.4 90.2612 115.4C93.2212 115.4 95.3612 117.58 95.3612 120.74ZM90.2612 116.62C88.2212 116.62 86.7212 118.06 86.5412 120.12H94.0012C93.8212 118.06 92.3212 116.62 90.2612 116.62ZM99.6115 117.54C100.271 116.14 101.611 115.4 103.551 115.4V116.78C103.431 116.78 103.311 116.76 103.211 116.76C101.011 116.76 99.6715 118.16 99.6715 120.64V126H98.2515V115.48H99.6115V117.54ZM115.873 126.1C112.733 126.1 110.453 123.88 110.453 120.74C110.453 117.6 112.733 115.4 115.873 115.4C117.653 115.4 119.153 116.1 119.993 117.48L118.933 118.2C118.213 117.14 117.093 116.64 115.873 116.64C113.573 116.64 111.893 118.28 111.893 120.74C111.893 123.22 113.573 124.84 115.873 124.84C117.093 124.84 118.213 124.36 118.933 123.3L119.993 124.02C119.153 125.38 117.653 126.1 115.873 126.1ZM124.143 117.54C124.803 116.14 126.143 115.4 128.083 115.4V116.78C127.963 116.78 127.843 116.76 127.743 116.76C125.543 116.76 124.203 118.16 124.203 120.64V126H122.783V115.48H124.143V117.54ZM139.736 120.74C139.736 120.86 139.716 121.02 139.716 121.18H130.916C131.076 123.38 132.756 124.84 135.056 124.84C136.336 124.84 137.476 124.38 138.276 123.46L139.076 124.38C138.136 125.5 136.676 126.1 135.016 126.1C131.736 126.1 129.496 123.86 129.496 120.74C129.496 117.62 131.676 115.4 134.636 115.4C137.596 115.4 139.736 117.58 139.736 120.74ZM134.636 116.62C132.596 116.62 131.096 118.06 130.916 120.12H138.376C138.196 118.06 136.696 116.62 134.636 116.62ZM146.014 115.4C148.734 115.4 150.274 116.76 150.274 119.48V126H148.914V124.36C148.274 125.44 147.034 126.1 145.294 126.1C142.914 126.1 141.454 124.86 141.454 123.04C141.454 121.42 142.494 120.06 145.514 120.06H148.854V119.42C148.854 117.62 147.834 116.64 145.874 116.64C144.514 116.64 143.234 117.12 142.374 117.88L141.734 116.82C142.794 115.92 144.354 115.4 146.014 115.4ZM145.514 124.98C147.114 124.98 148.294 124.22 148.854 122.84V121.12H145.554C143.514 121.12 142.854 121.92 142.854 123C142.854 124.22 143.834 124.98 145.514 124.98ZM159.17 124.34L159.67 125.36C159.11 125.86 158.27 126.1 157.45 126.1C155.47 126.1 154.37 124.98 154.37 123.04V116.68H152.49V115.48H154.37V113.18H155.79V115.48H158.99V116.68H155.79V122.96C155.79 124.2 156.43 124.88 157.61 124.88C158.19 124.88 158.77 124.7 159.17 124.34ZM162.975 113.18C162.395 113.18 161.935 112.72 161.935 112.16C161.935 111.62 162.395 111.16 162.975 111.16C163.555 111.16 164.015 111.6 164.015 112.14C164.015 112.72 163.575 113.18 162.975 113.18ZM162.255 126V115.48H163.675V126H162.255ZM175.066 115.48H176.466L171.786 126H170.326L165.666 115.48H167.146L171.086 124.44L175.066 115.48ZM187.353 120.74C187.353 120.86 187.333 121.02 187.333 121.18H178.533C178.693 123.38 180.373 124.84 182.673 124.84C183.953 124.84 185.093 124.38 185.893 123.46L186.693 124.38C185.753 125.5 184.293 126.1 182.633 126.1C179.353 126.1 177.113 123.86 177.113 120.74C177.113 117.62 179.293 115.4 182.253 115.4C185.213 115.4 187.353 117.58 187.353 120.74ZM182.253 116.62C180.213 116.62 178.713 118.06 178.533 120.12H185.993C185.813 118.06 184.313 116.62 182.253 116.62ZM193.498 121.08V120.06H203.498V121.08H193.498ZM217.092 126.12C212.892 126.12 209.772 123.1 209.772 119C209.772 114.9 212.892 111.88 217.112 111.88C219.152 111.88 220.992 112.56 222.232 113.92L221.292 114.86C220.152 113.7 218.752 113.2 217.152 113.2C213.772 113.2 211.232 115.68 211.232 119C211.232 122.32 213.772 124.8 217.152 124.8C218.752 124.8 220.152 124.3 221.292 123.12L222.232 124.06C220.992 125.42 219.152 126.12 217.092 126.12ZM226.447 117.54C227.107 116.14 228.447 115.4 230.387 115.4V116.78C230.267 116.78 230.147 116.76 230.047 116.76C227.847 116.76 226.507 118.16 226.507 120.64V126H225.087V115.48H226.447V117.54ZM242.041 120.74C242.041 120.86 242.021 121.02 242.021 121.18H233.221C233.381 123.38 235.061 124.84 237.361 124.84C238.641 124.84 239.781 124.38 240.581 123.46L241.381 124.38C240.441 125.5 238.981 126.1 237.321 126.1C234.041 126.1 231.801 123.86 231.801 120.74C231.801 117.62 233.981 115.4 236.941 115.4C239.901 115.4 242.041 117.58 242.041 120.74ZM236.941 116.62C234.901 116.62 233.401 118.06 233.221 120.12H240.681C240.501 118.06 239.001 116.62 236.941 116.62ZM248.318 115.4C251.038 115.4 252.578 116.76 252.578 119.48V126H251.218V124.36C250.578 125.44 249.338 126.1 247.598 126.1C245.218 126.1 243.758 124.86 243.758 123.04C243.758 121.42 244.798 120.06 247.818 120.06H251.158V119.42C251.158 117.62 250.138 116.64 248.178 116.64C246.818 116.64 245.538 117.12 244.678 117.88L244.038 116.82C245.098 115.92 246.658 115.4 248.318 115.4ZM247.818 124.98C249.418 124.98 250.598 124.22 251.158 122.84V121.12H247.858C245.818 121.12 245.158 121.92 245.158 123C245.158 124.22 246.138 124.98 247.818 124.98ZM261.475 124.34L261.975 125.36C261.415 125.86 260.575 126.1 259.755 126.1C257.775 126.1 256.675 124.98 256.675 123.04V116.68H254.795V115.48H256.675V113.18H258.095V115.48H261.295V116.68H258.095V122.96C258.095 124.2 258.735 124.88 259.915 124.88C260.495 124.88 261.075 124.7 261.475 124.34ZM265.28 113.18C264.7 113.18 264.24 112.72 264.24 112.16C264.24 111.62 264.7 111.16 265.28 111.16C265.86 111.16 266.32 111.6 266.32 112.14C266.32 112.72 265.88 113.18 265.28 113.18ZM264.56 126V115.48H265.98V126H264.56ZM277.371 115.48H278.771L274.091 126H272.631L267.971 115.48H269.451L273.391 124.44L277.371 115.48ZM296.165 123.72V119H297.585V124.34C296.265 125.52 294.385 126.12 292.445 126.12C288.185 126.12 285.065 123.1 285.065 119C285.065 114.9 288.185 111.88 292.465 111.88C294.585 111.88 296.425 112.56 297.665 113.9L296.745 114.84C295.565 113.68 294.165 113.2 292.525 113.2C289.065 113.2 286.525 115.66 286.525 119C286.525 122.32 289.065 124.8 292.505 124.8C293.845 124.8 295.085 124.5 296.165 123.72ZM302.834 117.54C303.494 116.14 304.834 115.4 306.774 115.4V116.78C306.654 116.78 306.534 116.76 306.434 116.76C304.234 116.76 302.894 118.16 302.894 120.64V126H301.474V115.48H302.834V117.54ZM313.006 115.4C315.726 115.4 317.266 116.76 317.266 119.48V126H315.906V124.36C315.266 125.44 314.026 126.1 312.286 126.1C309.906 126.1 308.446 124.86 308.446 123.04C308.446 121.42 309.486 120.06 312.506 120.06H315.846V119.42C315.846 117.62 314.826 116.64 312.866 116.64C311.506 116.64 310.226 117.12 309.366 117.88L308.726 116.82C309.786 115.92 311.346 115.4 313.006 115.4ZM312.506 124.98C314.106 124.98 315.286 124.22 315.846 122.84V121.12H312.546C310.506 121.12 309.846 121.92 309.846 123C309.846 124.22 310.826 124.98 312.506 124.98ZM321.363 114.18C321.363 112.3 322.483 111.06 324.543 111.06C325.323 111.06 326.123 111.28 326.643 111.72L326.163 112.78C325.763 112.44 325.203 112.26 324.603 112.26C323.383 112.26 322.743 112.94 322.743 114.24V115.48H325.983V116.68H322.783V126H321.363V116.68H319.483V115.48H321.363V114.18ZM330.223 111.16C330.803 111.16 331.263 111.6 331.263 112.14C331.263 112.72 330.823 113.18 330.223 113.18C329.643 113.18 329.183 112.72 329.183 112.16C329.183 111.62 329.643 111.16 330.223 111.16ZM329.503 126V115.48H330.923V126H329.503ZM343.212 126H341.592L338.252 121.6L334.892 126H333.292L337.452 120.6L333.492 115.48H335.092L338.252 119.6L341.412 115.48H342.972L339.012 120.6L343.212 126ZM62.7996 137.18C62.2196 137.18 61.7596 136.72 61.7596 136.16C61.7596 135.62 62.2196 135.16 62.7996 135.16C63.3796 135.16 63.8396 135.6 63.8396 136.14C63.8396 136.72 63.3996 137.18 62.7996 137.18ZM62.0796 150V139.48H63.4996V150H62.0796ZM70.2707 150.1C68.5307 150.1 66.8507 149.54 65.9907 148.8L66.6307 147.68C67.4707 148.34 68.8907 148.86 70.3707 148.86C72.3707 148.86 73.1907 148.18 73.1907 147.14C73.1907 144.4 66.3707 146.56 66.3707 142.4C66.3707 140.68 67.8507 139.4 70.5307 139.4C71.8907 139.4 73.3707 139.78 74.2507 140.38L73.6307 141.52C72.7107 140.88 71.6107 140.62 70.5307 140.62C68.6307 140.62 67.7907 141.36 67.7907 142.36C67.7907 145.2 74.6107 143.06 74.6107 147.1C74.6107 148.92 73.0107 150.1 70.2707 150.1ZM86.7702 150.1C83.6902 150.1 81.4102 147.86 81.4102 144.74C81.4102 141.62 83.6902 139.4 86.7702 139.4C89.8502 139.4 92.1102 141.62 92.1102 144.74C92.1102 147.86 89.8502 150.1 86.7702 150.1ZM86.7702 148.84C89.0102 148.84 90.6702 147.2 90.6702 144.74C90.6702 142.28 89.0102 140.64 86.7702 140.64C84.5302 140.64 82.8502 142.28 82.8502 144.74C82.8502 147.2 84.5302 148.84 86.7702 148.84ZM103.069 139.48H104.489V150H103.129V148.08C102.389 149.36 101.029 150.1 99.3493 150.1C96.6693 150.1 94.9093 148.6 94.9093 145.58V139.48H96.3293V145.44C96.3293 147.68 97.4893 148.82 99.4893 148.82C101.689 148.82 103.069 147.4 103.069 145V139.48ZM109.826 141.54C110.486 140.14 111.826 139.4 113.766 139.4V140.78C113.646 140.78 113.526 140.76 113.426 140.76C111.226 140.76 109.886 142.16 109.886 144.64V150H108.466V139.48H109.826V141.54ZM126.768 148.34L127.268 149.36C126.708 149.86 125.868 150.1 125.048 150.1C123.068 150.1 121.968 148.98 121.968 147.04V140.68H120.088V139.48H121.968V137.18H123.388V139.48H126.588V140.68H123.388V146.96C123.388 148.2 124.028 148.88 125.208 148.88C125.788 148.88 126.368 148.7 126.768 148.34ZM131.213 141.54C131.873 140.14 133.213 139.4 135.153 139.4V140.78C135.033 140.78 134.913 140.76 134.813 140.76C132.613 140.76 131.273 142.16 131.273 144.64V150H129.853V139.48H131.213V141.54ZM145.94 139.48H147.36V150H146V148.08C145.26 149.36 143.9 150.1 142.22 150.1C139.54 150.1 137.78 148.6 137.78 145.58V139.48H139.2V145.44C139.2 147.68 140.36 148.82 142.36 148.82C144.56 148.82 145.94 147.4 145.94 145V139.48ZM154.157 150.1C152.417 150.1 150.737 149.54 149.877 148.8L150.517 147.68C151.357 148.34 152.777 148.86 154.257 148.86C156.257 148.86 157.077 148.18 157.077 147.14C157.077 144.4 150.257 146.56 150.257 142.4C150.257 140.68 151.737 139.4 154.417 139.4C155.777 139.4 157.257 139.78 158.137 140.38L157.517 141.52C156.597 140.88 155.497 140.62 154.417 140.62C152.517 140.62 151.677 141.36 151.677 142.36C151.677 145.2 158.497 143.06 158.497 147.1C158.497 148.92 156.897 150.1 154.157 150.1ZM166.163 148.34L166.663 149.36C166.103 149.86 165.263 150.1 164.443 150.1C162.463 150.1 161.363 148.98 161.363 147.04V140.68H159.483V139.48H161.363V137.18H162.783V139.48H165.983V140.68H162.783V146.96C162.783 148.2 163.423 148.88 164.603 148.88C165.183 148.88 165.763 148.7 166.163 148.34ZM178.056 144.74C178.056 144.86 178.036 145.02 178.036 145.18H169.236C169.396 147.38 171.076 148.84 173.376 148.84C174.656 148.84 175.796 148.38 176.596 147.46L177.396 148.38C176.456 149.5 174.996 150.1 173.336 150.1C170.056 150.1 167.816 147.86 167.816 144.74C167.816 141.62 169.996 139.4 172.956 139.4C175.916 139.4 178.056 141.58 178.056 144.74ZM172.956 140.62C170.916 140.62 169.416 142.06 169.236 144.12H176.696C176.516 142.06 175.016 140.62 172.956 140.62ZM189.127 135.16H190.547V150H189.187V147.92C188.327 149.34 186.867 150.1 185.127 150.1C182.127 150.1 179.887 147.92 179.887 144.74C179.887 141.56 182.127 139.4 185.127 139.4C186.807 139.4 188.247 140.12 189.127 141.48V135.16ZM185.247 148.84C187.467 148.84 189.147 147.2 189.147 144.74C189.147 142.28 187.467 140.64 185.247 140.64C183.007 140.64 181.327 142.28 181.327 144.74C181.327 147.2 183.007 148.84 185.247 148.84ZM205.156 139.4C208.156 139.4 210.396 141.56 210.396 144.74C210.396 147.94 208.156 150.1 205.156 150.1C203.476 150.1 202.036 149.38 201.156 148.02V153.88H199.736V139.48H201.096V141.56C201.956 140.16 203.416 139.4 205.156 139.4ZM205.056 148.84C207.276 148.84 208.976 147.2 208.976 144.74C208.976 142.3 207.276 140.64 205.056 140.64C202.816 140.64 201.136 142.3 201.136 144.74C201.136 147.2 202.816 148.84 205.056 148.84ZM214.651 141.54C215.311 140.14 216.651 139.4 218.591 139.4V140.78C218.471 140.78 218.351 140.76 218.251 140.76C216.051 140.76 214.711 142.16 214.711 144.64V150H213.291V139.48H214.651V141.54ZM221.882 137.18C221.302 137.18 220.842 136.72 220.842 136.16C220.842 135.62 221.302 135.16 221.882 135.16C222.462 135.16 222.922 135.6 222.922 136.14C222.922 136.72 222.482 137.18 221.882 137.18ZM221.162 150V139.48H222.582V150H221.162ZM231.893 139.4C234.453 139.4 236.213 140.88 236.213 143.9V150H234.793V144.04C234.793 141.82 233.633 140.68 231.633 140.68C229.373 140.68 227.953 142.08 227.953 144.48V150H226.533V139.48H227.893V141.42C228.653 140.14 230.073 139.4 231.893 139.4ZM245.108 148.34L245.608 149.36C245.048 149.86 244.208 150.1 243.388 150.1C241.408 150.1 240.308 148.98 240.308 147.04V140.68H238.428V139.48H240.308V137.18H241.728V139.48H244.928V140.68H241.728V146.96C241.728 148.2 242.368 148.88 243.548 148.88C244.128 148.88 244.708 148.7 245.108 148.34ZM258.847 139.4C261.847 139.4 264.087 141.56 264.087 144.74C264.087 147.94 261.847 150.1 258.847 150.1C257.167 150.1 255.727 149.38 254.847 148.02V153.88H253.427V139.48H254.787V141.56C255.647 140.16 257.107 139.4 258.847 139.4ZM258.747 148.84C260.967 148.84 262.667 147.2 262.667 144.74C262.667 142.3 260.967 140.64 258.747 140.64C256.507 140.64 254.827 142.3 254.827 144.74C254.827 147.2 256.507 148.84 258.747 148.84ZM270.603 139.4C273.323 139.4 274.863 140.76 274.863 143.48V150H273.503V148.36C272.863 149.44 271.623 150.1 269.883 150.1C267.503 150.1 266.043 148.86 266.043 147.04C266.043 145.42 267.083 144.06 270.103 144.06H273.443V143.42C273.443 141.62 272.423 140.64 270.463 140.64C269.103 140.64 267.823 141.12 266.963 141.88L266.323 140.82C267.383 139.92 268.943 139.4 270.603 139.4ZM270.103 148.98C271.703 148.98 272.883 148.22 273.443 146.84V145.12H270.143C268.103 145.12 267.443 145.92 267.443 147C267.443 148.22 268.423 148.98 270.103 148.98ZM280.08 141.54C280.74 140.14 282.08 139.4 284.02 139.4V140.78C283.9 140.78 283.78 140.76 283.68 140.76C281.48 140.76 280.14 142.16 280.14 144.64V150H278.72V139.48H280.08V141.54ZM292.081 148.34L292.581 149.36C292.021 149.86 291.181 150.1 290.361 150.1C288.381 150.1 287.281 148.98 287.281 147.04V140.68H285.401V139.48H287.281V137.18H288.701V139.48H291.901V140.68H288.701V146.96C288.701 148.2 289.341 148.88 290.521 148.88C291.101 148.88 291.681 148.7 292.081 148.34ZM300.526 139.4C303.086 139.4 304.846 140.88 304.846 143.9V150H303.426V144.04C303.426 141.82 302.266 140.68 300.266 140.68C298.006 140.68 296.586 142.08 296.586 144.48V150H295.166V139.48H296.526V141.42C297.286 140.14 298.706 139.4 300.526 139.4ZM317.92 144.74C317.92 144.86 317.9 145.02 317.9 145.18H309.1C309.26 147.38 310.94 148.84 313.24 148.84C314.52 148.84 315.66 148.38 316.46 147.46L317.26 148.38C316.32 149.5 314.86 150.1 313.2 150.1C309.92 150.1 307.68 147.86 307.68 144.74C307.68 141.62 309.86 139.4 312.82 139.4C315.78 139.4 317.92 141.58 317.92 144.74ZM312.82 140.62C310.78 140.62 309.28 142.06 309.1 144.12H316.56C316.38 142.06 314.88 140.62 312.82 140.62ZM322.17 141.54C322.83 140.14 324.17 139.4 326.11 139.4V140.78C325.99 140.78 325.87 140.76 325.77 140.76C323.57 140.76 322.23 142.16 322.23 144.64V150H320.81V139.48H322.17V141.54ZM328.782 150.1C328.202 150.1 327.722 149.62 327.722 149C327.722 148.38 328.202 147.92 328.782 147.92C329.362 147.92 329.862 148.38 329.862 149C329.862 149.62 329.362 150.1 328.782 150.1Z" fill="white"/>
<path d="M-13.7607 -0.75001L-9.51074 8.74999C-15.3441 12.5833 -19.5941 17.6667 -22.2607 24C-24.9274 30.3333 -25.4274 38.4167 -23.7607 48.25L-35.0107 39.25C-29.6774 36.5833 -24.8441 35.75 -20.5107 36.75C-16.0107 37.75 -12.5107 40 -10.0107 43.5C-7.34407 46.8333 -6.01074 51 -6.01074 56C-6.01074 61.6667 -7.84407 66.75 -11.5107 71.25C-15.1774 75.5833 -19.8441 77.75 -25.5107 77.75C-32.3441 77.75 -37.4274 75 -40.7607 69.5C-43.9274 64 -45.5107 57.6667 -45.5107 50.5C-45.5107 43.6667 -44.4274 36.8333 -42.2607 30C-40.0941 23 -36.6774 16.75 -32.0107 11.25C-27.3441 5.74999 -21.2607 1.74999 -13.7607 -0.75001ZM37.2393 -0.500013L41.4893 9C35.6559 12.8333 31.4059 17.9167 28.7393 24.25C26.0726 30.5833 25.5726 38.6667 27.2393 48.5L15.9893 39.5C21.3226 36.8333 26.1559 36 30.4893 37C34.9893 38 38.4893 40.25 40.9893 43.75C43.6559 47.0833 44.9893 51.25 44.9893 56.25C44.9893 61.9167 43.1559 67 39.4893 71.5C35.8226 75.8333 31.1559 78 25.4893 78C18.6559 78 13.5726 75.25 10.2393 69.75C7.07259 64.25 5.48926 57.9167 5.48926 50.75C5.48926 43.9167 6.5726 37.0833 8.73926 30.25C10.9059 23.25 14.3226 17 18.9893 11.5C23.6559 6 29.7393 1.99999 37.2393 -0.500013Z" fill="white"/>
<path d="M354.245 255L349.995 245.5C355.828 241.5 360.078 236.333 362.745 230C365.412 223.667 365.912 215.667 364.245 206L375.495 215C370.162 217.5 365.245 218.333 360.745 217.5C356.412 216.5 352.912 214.333 350.245 211C347.745 207.5 346.495 203.25 346.495 198.25C346.495 192.583 348.328 187.583 351.995 183.25C355.662 178.75 360.328 176.5 365.995 176.5C372.995 176.5 378.078 179.25 381.245 184.75C384.412 190.25 385.995 196.583 385.995 203.75C385.995 210.583 384.912 217.5 382.745 224.5C380.578 231.333 377.162 237.5 372.495 243C367.995 248.5 361.912 252.5 354.245 255ZM405.245 255L400.995 245.5C406.828 241.5 411.078 236.333 413.745 230C416.412 223.667 416.912 215.667 415.245 206L426.495 215C421.162 217.5 416.245 218.333 411.745 217.5C407.412 216.5 403.912 214.333 401.245 211C398.745 207.5 397.495 203.25 397.495 198.25C397.495 192.583 399.328 187.583 402.995 183.25C406.662 178.75 411.328 176.5 416.995 176.5C423.995 176.5 429.078 179.25 432.245 184.75C435.412 190.25 436.995 196.583 436.995 203.75C436.995 210.583 435.912 217.5 433.745 224.5C431.578 231.333 428.162 237.5 423.495 243C418.995 248.5 412.912 252.5 405.245 255Z" fill="white"/>
</g>
<rect x="0.5" y="0.5" width="391" height="299" stroke="url(#paint0_linear_170_71)"/>
<defs>
<linearGradient id="paint0_linear_170_71" x1="196" y1="0" x2="196" y2="300" gradientUnits="userSpaceOnUse">
<stop stop-color="white"/>
<stop offset="0.5" stop-color="#800000"/>
<stop offset="1" stop-color="white"/>
</linearGradient>
<clipPath id="clip0_170_71">
<rect width="392" height="300" fill="white"/>
</clipPath>
</defs>
</svg>
