<svg width="18" height="18" viewBox="0 0 18 18" fill="none" xmlns="http://www.w3.org/2000/svg">
<path d="M11.1938 12.2364L8.57456 9.61725V5.97113H9.42544V9.264L11.7864 11.625L11.1938 12.2364ZM8.57456 4.36294V2.72606H9.42544V4.36294H8.57456ZM13.6371 9.42544V8.57456H15.2739V9.42544H13.6371ZM8.57456 15.2739V13.6371H9.42544V15.2739H8.57456ZM2.72606 9.42544V8.57456H4.36294V9.42544H2.72606ZM9.00619 16.125C8.01931 16.125 7.095 15.938 6.23325 15.564C5.37138 15.19 4.61663 14.6793 3.969 14.0319C3.32137 13.3846 2.81044 12.6297 2.43619 11.7673C2.06206 10.9051 1.875 9.97994 1.875 8.99194C1.875 8.00869 2.062 7.0845 2.436 6.21938C2.81 5.35425 3.32069 4.601 3.96806 3.95963C4.61544 3.31825 5.37031 2.81044 6.23269 2.43619C7.09494 2.06206 8.02006 1.875 9.00806 1.875C9.99131 1.875 10.9155 2.062 11.7806 2.436C12.6458 2.81 13.399 3.31756 14.0404 3.95869C14.6818 4.59981 15.1896 5.35375 15.5638 6.2205C15.9379 7.08725 16.125 8.01169 16.125 8.99381C16.125 9.98069 15.938 10.905 15.564 11.7668C15.19 12.6286 14.6824 13.3822 14.0413 14.0274C13.4002 14.6728 12.6462 15.1838 11.7795 15.5603C10.9128 15.9368 9.98831 16.125 9.00619 16.125ZM9.00938 15.2739C10.7493 15.2739 12.2283 14.6629 13.4466 13.4409C14.6648 12.2188 15.2739 10.7354 15.2739 8.99063C15.2739 7.25075 14.666 5.77169 13.4501 4.55344C12.2343 3.33519 10.7509 2.72606 9 2.72606C7.2615 2.72606 5.78119 3.334 4.55906 4.54987C3.33706 5.76575 2.72606 7.24913 2.72606 9C2.72606 10.7385 3.33706 12.2188 4.55906 13.4409C5.78119 14.6629 7.26463 15.2739 9.00938 15.2739Z" fill="#FF0000"/>
</svg>
