<svg width="24" height="24" viewBox="0 0 24 24" fill="none" xmlns="http://www.w3.org/2000/svg">
<path d="M7.30775 21.1155C6.88592 21.1155 6.53042 20.9709 6.24125 20.6818C5.95225 20.3926 5.80775 20.0372 5.80775 19.6155C5.80775 19.1937 5.95225 18.8382 6.24125 18.549C6.53042 18.26 6.88592 18.1155 7.30775 18.1155C7.72958 18.1155 8.085 18.26 8.374 18.549C8.66317 18.8382 8.80775 19.1937 8.80775 19.6155C8.80775 20.0372 8.66317 20.3926 8.374 20.6818C8.085 20.9709 7.72958 21.1155 7.30775 21.1155ZM16.6923 21.1155C16.2704 21.1155 15.915 20.9709 15.626 20.6818C15.3368 20.3926 15.1923 20.0372 15.1923 19.6155C15.1923 19.1937 15.3368 18.8382 15.626 18.549C15.915 18.26 16.2704 18.1155 16.6923 18.1155C17.1141 18.1155 17.4696 18.26 17.7588 18.549C18.0478 18.8382 18.1923 19.1937 18.1923 19.6155C18.1923 20.0372 18.0478 20.3926 17.7588 20.6818C17.4696 20.9709 17.1141 21.1155 16.6923 21.1155ZM5.88075 5.5L8.55 11.1155H15.1845C15.3 11.1155 15.4026 11.0866 15.4923 11.0288C15.5821 10.9711 15.659 10.891 15.723 10.7885L18.3385 6.0385C18.4153 5.8975 18.4218 5.7725 18.3578 5.6635C18.2936 5.5545 18.1846 5.5 18.0308 5.5H5.88075ZM5.39225 4.5H18.4115C18.8462 4.5 19.1731 4.67725 19.3923 5.03175C19.6116 5.38625 19.6232 5.75133 19.427 6.127L16.5693 11.3345C16.4244 11.5782 16.2363 11.7692 16.0048 11.9078C15.7734 12.0463 15.5193 12.1155 15.2423 12.1155H8.1L6.8845 14.3463C6.782 14.5001 6.77883 14.6667 6.875 14.8463C6.97117 15.0258 7.11542 15.1155 7.30775 15.1155H18.1923V16.1155H7.30775C6.72442 16.1155 6.28917 15.8697 6.002 15.378C5.71483 14.8863 5.70775 14.3924 5.98075 13.8963L7.4845 11.2155L3.80775 3.5H2V2.5H4.44225L5.39225 4.5Z" fill="#FF0000"/>
</svg>
