<svg width="24" height="24" viewBox="0 0 24 24" fill="none" xmlns="http://www.w3.org/2000/svg">
<path d="M16.8538 18.4615H18.3385C18.3372 18.7025 18.2558 18.9083 18.0943 19.0788C17.9328 19.2493 17.7295 19.3551 17.4845 19.3962L6.1808 20.8173C5.7333 20.8749 5.33346 20.7667 4.9813 20.4925C4.62896 20.2183 4.42621 19.8606 4.37305 19.4193L3.1443 9.70575C3.09046 9.25825 3.20138 8.85317 3.47705 8.4905C3.75271 8.12767 4.11421 7.92567 4.56155 7.8845L5.53855 7.8115V8.816L4.71555 8.87875C4.53605 8.89158 4.39496 8.96533 4.2923 9.1C4.1898 9.23467 4.15138 9.39175 4.17705 9.57125L5.37305 19.2845C5.39871 19.464 5.47563 19.6051 5.6038 19.7078C5.73213 19.8102 5.88605 19.8487 6.06555 19.823L16.8538 18.4615ZM9.1538 16.4615C8.69363 16.4615 8.30938 16.3073 8.00105 15.999C7.69271 15.6907 7.53855 15.3064 7.53855 14.8463V4.6155C7.53855 4.15517 7.69271 3.77083 8.00105 3.4625C8.30938 3.15417 8.69363 3 9.1538 3H19.3845C19.8449 3 20.2292 3.15417 20.5375 3.4625C20.8459 3.77083 21 4.15517 21 4.6155V14.8463C21 15.3064 20.8459 15.6907 20.5375 15.999C20.2292 16.3073 19.8449 16.4615 19.3845 16.4615H9.1538ZM9.1538 15.4615H19.3845C19.564 15.4615 19.7115 15.4038 19.827 15.2885C19.9424 15.1732 20 15.0258 20 14.8463V4.6155C20 4.436 19.9424 4.2885 19.827 4.173C19.7115 4.05767 19.564 4 19.3845 4H9.1538C8.9743 4 8.82688 4.05767 8.71155 4.173C8.59621 4.2885 8.53855 4.436 8.53855 4.6155V14.8463C8.53855 15.0258 8.59621 15.1732 8.71155 15.2885C8.82688 15.4038 8.9743 15.4615 9.1538 15.4615ZM14.1213 14.077C15.2546 14.077 16.2171 13.6853 17.0088 12.902C17.8005 12.1187 18.238 11.177 18.3213 10.077C17.188 10.077 16.2171 10.4687 15.4088 11.252C14.6005 12.0353 14.1713 12.977 14.1213 14.077ZM14.1213 14.077C14.0713 12.977 13.6421 12.0353 12.8338 11.252C12.0255 10.4687 11.0546 10.077 9.9213 10.077C10.0046 11.177 10.4421 12.1187 11.2338 12.902C12.0255 13.6853 12.988 14.077 14.1213 14.077ZM14.1213 11.077C14.4046 11.077 14.6421 10.9812 14.8338 10.7895C15.0255 10.5978 15.1213 10.3603 15.1213 10.077V9.827L15.3713 9.927C15.6213 10.027 15.8755 10.052 16.1338 10.002C16.3921 9.952 16.588 9.81033 16.7213 9.577C16.8713 9.327 16.9213 9.06033 16.8713 8.777C16.8213 8.49367 16.6546 8.29442 16.3713 8.17925L16.1213 8.08075L16.3713 7.982C16.6546 7.86683 16.8203 7.66542 16.8683 7.37775C16.9165 7.09008 16.8675 6.82317 16.7213 6.577C16.5841 6.33983 16.3937 6.194 16.15 6.1395C15.9064 6.085 15.6468 6.11417 15.3713 6.227L15.1213 6.327V6.077C15.1213 5.79367 15.0255 5.55617 14.8338 5.3645C14.6421 5.17283 14.4046 5.077 14.1213 5.077C13.838 5.077 13.6005 5.17283 13.4088 5.3645C13.2171 5.55617 13.1213 5.79367 13.1213 6.077V6.327L12.8713 6.227C12.5956 6.11417 12.336 6.085 12.0923 6.1395C11.8488 6.194 11.6585 6.33983 11.5213 6.577C11.3751 6.82317 11.326 7.09008 11.374 7.37775C11.4222 7.66542 11.588 7.86683 11.8713 7.982L12.1213 8.08075L11.8713 8.17925C11.588 8.29442 11.4213 8.49367 11.3713 8.777C11.3213 9.06033 11.3713 9.327 11.5213 9.577C11.6546 9.81033 11.8505 9.952 12.1088 10.002C12.3671 10.052 12.6213 10.027 12.8713 9.927L13.1213 9.827V10.077C13.1213 10.3603 13.2171 10.5978 13.4088 10.7895C13.6005 10.9812 13.838 11.077 14.1213 11.077ZM14.1213 9.077C13.838 9.077 13.6005 8.98117 13.4088 8.7895C13.2171 8.59783 13.1213 8.36033 13.1213 8.077C13.1213 7.79367 13.2171 7.55617 13.4088 7.3645C13.6005 7.17283 13.838 7.077 14.1213 7.077C14.4046 7.077 14.6421 7.17283 14.8338 7.3645C15.0255 7.55617 15.1213 7.79367 15.1213 8.077C15.1213 8.36033 15.0255 8.59783 14.8338 8.7895C14.6421 8.98117 14.4046 9.077 14.1213 9.077Z" fill="#FF0000"/>
</svg>
