<svg width="24" height="24" viewBox="0 0 24 24" fill="none" xmlns="http://www.w3.org/2000/svg">
<path d="M15.9999 8.6155V5.6155H7.9999V8.6155H6.9999V4.61525H16.9999V8.6155H15.9999ZM17.6154 12.1155C17.8987 12.1155 18.1362 12.0197 18.3279 11.828C18.5196 11.6363 18.6154 11.3988 18.6154 11.1155C18.6154 10.8322 18.5196 10.5947 18.3279 10.403C18.1362 10.2113 17.8987 10.1155 17.6154 10.1155C17.3321 10.1155 17.0946 10.2113 16.9029 10.403C16.7112 10.5947 16.6154 10.8322 16.6154 11.1155C16.6154 11.3988 16.7112 11.6363 16.9029 11.828C17.0946 12.0197 17.3321 12.1155 17.6154 12.1155ZM15.9999 19V14.4615H7.9999V19H15.9999ZM16.9999 20H6.9999V16H3.5769V10.6155C3.5769 10.0488 3.76915 9.57383 4.15365 9.1905C4.53832 8.80717 5.01274 8.6155 5.5769 8.6155H18.4229C18.9896 8.6155 19.4646 8.80717 19.8479 9.1905C20.2312 9.57383 20.4229 10.0488 20.4229 10.6155V16H16.9999V20ZM19.4229 15V10.6155C19.4229 10.3322 19.3271 10.0947 19.1354 9.903C18.9437 9.71133 18.7062 9.6155 18.4229 9.6155H5.5769C5.29357 9.6155 5.05607 9.71133 4.8644 9.903C4.67274 10.0947 4.5769 10.3322 4.5769 10.6155V15H6.9999V13.4615H16.9999V15H19.4229Z" fill="#FF0000"/>
</svg>
