<svg width="48" height="48" viewBox="0 0 48 48" fill="none" xmlns="http://www.w3.org/2000/svg">
<path d="M7.19238 40.6925L14.4154 20.5385L27.4189 33.4575L7.19238 40.6925ZM9.78088 38.104L24.5959 32.85L15.0229 23.227L9.78088 38.104ZM26.2729 26.019L25.1884 24.9345L36.3039 13.819C37.2422 12.9064 38.4127 12.4417 39.8154 12.425C41.2177 12.4084 42.3882 12.8692 43.3269 13.8075L43.9074 14.3885L42.8999 15.473L42.2959 14.831C41.6112 14.1464 40.801 13.802 39.8654 13.798C38.9294 13.7944 38.1152 14.1387 37.4229 14.831L26.2729 26.019ZM19.6689 19.5L18.5844 18.454L19.9309 17.1075C20.7999 16.2385 21.2222 15.2225 21.1979 14.0595C21.1735 12.8969 20.7512 11.9052 19.9309 11.0845L18.6459 9.80002L19.7309 8.75403L20.9539 9.97702C22.0949 11.0924 22.657 12.4674 22.6404 14.102C22.6237 15.7367 22.0577 17.1117 20.9424 18.227L19.6689 19.5ZM22.9884 22.7345L21.9424 21.6885L28.8499 14.7425C29.5345 14.0835 29.8749 13.2495 29.8709 12.2405C29.8672 11.2315 29.5231 10.3847 28.8384 9.70002L26.1729 7.03452L27.2189 5.98853L29.9459 8.67702C30.8769 9.64102 31.3526 10.8289 31.3729 12.2405C31.3936 13.6519 30.9217 14.8269 29.9574 15.7655L22.9884 22.7345ZM29.5809 29.3385L28.4959 28.2925L29.6924 27.096C30.8334 25.955 32.2077 25.3744 33.8154 25.354C35.423 25.3334 36.7974 25.8935 37.9384 27.0345L39.2194 28.3155L38.1729 29.4L36.8424 28.069C35.973 27.2 34.9742 26.7655 33.8459 26.7655C32.7179 26.7655 31.7064 27.2 30.8114 28.069L29.5809 29.3385Z" fill="#FF0000"/>
</svg>
