<svg width="48" height="48" viewBox="0 0 48 48" fill="none" xmlns="http://www.w3.org/2000/svg">
<path d="M9.5385 14.8385V37.231C9.5385 37.5897 9.65383 37.8845 9.8845 38.1155C10.1155 38.3462 10.4103 38.4615 10.769 38.4615H37.231C37.5897 38.4615 37.8845 38.3462 38.1155 38.1155C38.3462 37.8845 38.4615 37.5897 38.4615 37.231V14.8385H30V28.9L24 25.9L18 28.9V14.8385H9.5385ZM10.769 40C10.021 40 9.3725 39.7255 8.8235 39.1765C8.2745 38.6275 8 37.979 8 37.231V14.7425C8 14.4385 8.05 14.138 8.15 13.841C8.25 13.5437 8.4 13.2697 8.6 13.019L11.777 9.046C12.018 8.73067 12.3297 8.4775 12.712 8.2865C13.0943 8.0955 13.5057 8 13.946 8H33.9655C34.4058 8 34.8237 8.0955 35.219 8.2865C35.614 8.4775 35.932 8.73067 36.173 9.046L39.4 13.096C39.6 13.3467 39.75 13.627 39.85 13.937C39.95 14.247 40 14.5538 40 14.8575V37.231C40 37.979 39.7255 38.6275 39.1765 39.1765C38.6275 39.7255 37.979 40 37.231 40H10.769ZM10.3115 13.3H37.6L34.884 9.9615C34.756 9.83317 34.6087 9.73067 34.442 9.654C34.2753 9.577 34.1022 9.5385 33.9225 9.5385H13.996C13.8167 9.5385 13.6372 9.577 13.4575 9.654C13.2782 9.73067 13.1372 9.83317 13.0345 9.9615L10.3115 13.3ZM19.5385 14.8385V26.396L24 24.1655L28.4615 26.396V14.8385H19.5385Z" fill="#FF0000"/>
</svg>
