<svg width="48" height="48" viewBox="0 0 48 48" fill="none" xmlns="http://www.w3.org/2000/svg">
<path d="M30.2925 39.846L17.7575 35.427L10 38.477C9.536 38.7 9.08667 38.6768 8.652 38.4075C8.21733 38.1385 8 37.7347 8 37.196V12.796C8 12.4397 8.0865 12.114 8.2595 11.819C8.4325 11.5243 8.68067 11.3193 9.004 11.204L17.7575 8.15399L30.2925 12.523L38 9.51149C38.464 9.29616 38.9133 9.30199 39.348 9.52899C39.7827 9.75566 40 10.1255 40 10.6385V35.504C40 35.845 39.8942 36.1423 39.6825 36.396C39.4712 36.65 39.2078 36.8308 38.8925 36.9385L30.2925 39.846ZM29.4 37.9425V13.6925L18.6 9.96899V34.219L29.4 37.9425ZM30.9385 37.9425L38.4615 35.477V10.877L30.9385 13.6925V37.9425ZM9.5385 37.073L17.0615 34.219V9.96899L9.5385 12.5115V37.073Z" fill="#FF0000"/>
</svg>
