<svg width="48" height="48" viewBox="0 0 48 48" fill="none" xmlns="http://www.w3.org/2000/svg">
<path d="M31.1425 40H10.769C10.0007 40 9.347 39.7307 8.808 39.192C8.26933 38.653 8 37.9993 8 37.231V10.769C8 10.0007 8.26933 9.347 8.808 8.808C9.347 8.26933 10.0007 8 10.769 8H37.231C37.9993 8 38.653 8.26933 39.192 8.808C39.7307 9.347 40 10.0007 40 10.769V31.1425L31.1425 40ZM30.219 38.4615V34.393C30.219 33.249 30.6287 32.2673 31.448 31.448C32.2673 30.6287 33.249 30.219 34.393 30.219H38.4615V10.769C38.4615 10.4613 38.3333 10.1793 38.077 9.923C37.8207 9.66667 37.5387 9.5385 37.231 9.5385H10.769C10.4613 9.5385 10.1793 9.66667 9.923 9.923C9.66667 10.1793 9.5385 10.4613 9.5385 10.769V37.231C9.5385 37.5387 9.66667 37.8207 9.923 38.077C10.1793 38.3333 10.4613 38.4615 10.769 38.4615H30.219ZM23.231 30.9885H24.769V18.55H30.9885V17.0115H17.0115V18.55H23.231V30.9885Z" fill="#FF0000"/>
</svg>
