<svg width="48" height="48" viewBox="0 0 48 48" fill="none" xmlns="http://www.w3.org/2000/svg">
<path d="M13.9615 42C12.8718 42 11.9392 41.6461 11.1635 40.9385C10.3878 40.2305 10 39.3548 10 38.3115V11.4575C10 10.4418 10.3443 9.55098 11.033 8.78498C11.7217 8.01898 12.5697 7.53031 13.577 7.31898L30.769 3.59998V32.369L13.5 36.219C12.9543 36.3423 12.491 36.5963 12.11 36.981C11.729 37.3653 11.5385 37.8088 11.5385 38.3115C11.5385 38.9448 11.7757 39.4615 12.25 39.8615C12.7243 40.2615 13.2948 40.4615 13.9615 40.4615H36.4615V9.99998H38V42H13.9615ZM16.3075 34.0615L29.231 31.173V5.53098L16.3075 8.31898V34.0615ZM14.769 34.438V8.66147L13.8075 8.86147C13.1642 8.99481 12.6252 9.29848 12.1905 9.77248C11.7558 10.2468 11.5385 10.8085 11.5385 11.4575V35.5075C11.8405 35.3341 12.1513 35.1761 12.471 35.0335C12.7903 34.8905 13.1333 34.7856 13.5 34.719L14.769 34.438Z" fill="#FF0000"/>
</svg>
