<svg width="48" height="48" viewBox="0 0 48 48" fill="none" xmlns="http://www.w3.org/2000/svg">
<path d="M8.769 42C8.00067 42 7.347 41.7307 6.808 41.192C6.26933 40.653 6 39.9993 6 39.231V18.769C6 18.0007 6.26933 17.347 6.808 16.808C7.347 16.2693 8.00067 16 8.769 16H20.6925V7.5385C20.6925 7.12883 20.8468 6.77 21.1555 6.462C21.4642 6.154 21.8307 6 22.255 6H25.756C26.1803 6 26.545 6.154 26.85 6.462C27.155 6.77 27.3075 7.12883 27.3075 7.5385V16H39.231C39.9993 16 40.653 16.2693 41.192 16.808C41.7307 17.347 42 18.0007 42 18.769V39.231C42 39.9993 41.7307 40.653 41.192 41.192C40.653 41.7307 39.9993 42 39.231 42H8.769ZM8.769 40.4615H39.231C39.5897 40.4615 39.8845 40.3462 40.1155 40.1155C40.3462 39.8845 40.4615 39.5897 40.4615 39.231V18.769C40.4615 18.4103 40.3462 18.1155 40.1155 17.8845C39.8845 17.6538 39.5897 17.5385 39.231 17.5385H27.3075V19.769C27.3075 20.241 27.155 20.6155 26.85 20.8925C26.545 21.1692 26.1778 21.3075 25.7485 21.3075H22.2515C21.8222 21.3075 21.455 21.1692 21.15 20.8925C20.845 20.6155 20.6925 20.241 20.6925 19.769V17.5385H8.769C8.41033 17.5385 8.1155 17.6538 7.8845 17.8845C7.65383 18.1155 7.5385 18.4103 7.5385 18.769V39.231C7.5385 39.5897 7.65383 39.8845 7.8845 40.1155C8.1155 40.3462 8.41033 40.4615 8.769 40.4615ZM12.446 34.6885H23.1655V34.4885C23.1655 34.0168 23.0475 33.5925 22.8115 33.2155C22.5755 32.8385 22.2627 32.5667 21.873 32.4C21.037 32.0847 20.3063 31.8687 19.681 31.752C19.0553 31.6353 18.4463 31.577 17.854 31.577C17.2463 31.577 16.6033 31.6455 15.925 31.7825C15.2467 31.9198 14.5345 32.1257 13.7885 32.4C13.3655 32.5667 13.036 32.8385 12.8 33.2155C12.564 33.5925 12.446 34.0168 12.446 34.4885V34.6885ZM28.169 31.454H36.4V29.9155H28.169V31.454ZM17.872 29.9155C18.4803 29.9155 19.0025 29.6915 19.4385 29.2435C19.8745 28.7952 20.0925 28.2665 20.0925 27.6575C20.0925 27.0485 19.8745 26.52 19.4385 26.072C19.0025 25.624 18.4803 25.4 17.872 25.4C17.2637 25.4 16.7355 25.6235 16.2875 26.0705C15.8395 26.5175 15.6155 27.053 15.6155 27.677C15.6155 28.273 15.8395 28.7952 16.2875 29.2435C16.7355 29.6915 17.2637 29.9155 17.872 29.9155ZM28.169 26.8425H36.4V25.304H28.169V26.8425ZM22.231 19.769H25.769V7.5385H22.231V19.769Z" fill="#FF0000"/>
</svg>
