<svg width="48" height="48" viewBox="0 0 48 48" fill="none" xmlns="http://www.w3.org/2000/svg">
<path d="M28.769 24.6925H36.4615V23.154H28.769V24.6925ZM28.769 19.154H36.4615V17.6155H28.769V19.154ZM11.5385 30.6155H24.769V30.3575C24.769 29.2398 24.1953 28.361 23.048 27.721C21.9007 27.0813 20.2693 26.7615 18.154 26.7615C16.0387 26.7615 14.4072 27.0813 13.2595 27.721C12.1122 28.361 11.5385 29.2398 11.5385 30.3575V30.6155ZM18.148 23.069C18.9467 23.069 19.621 22.796 20.171 22.25C20.721 21.7037 20.996 21.0312 20.996 20.2325C20.996 19.4338 20.723 18.7595 20.177 18.2095C19.6307 17.6595 18.9582 17.3845 18.1595 17.3845C17.3608 17.3845 16.6865 17.6577 16.1365 18.204C15.5865 18.75 15.3115 19.4223 15.3115 20.221C15.3115 21.0197 15.5847 21.694 16.131 22.244C16.677 22.794 17.3493 23.069 18.148 23.069ZM8.769 38C8.00067 38 7.347 37.7307 6.808 37.192C6.26933 36.653 6 35.9993 6 35.231V12.769C6 12.0007 6.26933 11.347 6.808 10.808C7.347 10.2693 8.00067 10 8.769 10H39.231C39.9993 10 40.653 10.2693 41.192 10.808C41.7307 11.347 42 12.0007 42 12.769V35.231C42 35.9993 41.7307 36.653 41.192 37.192C40.653 37.7307 39.9993 38 39.231 38H8.769ZM8.769 36.4615H39.231C39.5387 36.4615 39.8207 36.3333 40.077 36.077C40.3333 35.8207 40.4615 35.5387 40.4615 35.231V12.769C40.4615 12.4613 40.3333 12.1793 40.077 11.923C39.8207 11.6667 39.5387 11.5385 39.231 11.5385H8.769C8.46133 11.5385 8.17933 11.6667 7.923 11.923C7.66667 12.1793 7.5385 12.4613 7.5385 12.769V35.231C7.5385 35.5387 7.66667 35.8207 7.923 36.077C8.17933 36.3333 8.46133 36.4615 8.769 36.4615Z" fill="#FF0000"/>
</svg>
